<?xml version="1.0" encoding="UTF-8" standalone="no"?>
<!-- Created with Inkscape (http://www.inkscape.org/) -->

<svg
   xmlns:dc="http://purl.org/dc/elements/1.1/"
   xmlns:cc="http://creativecommons.org/ns#"
   xmlns:rdf="http://www.w3.org/1999/02/22-rdf-syntax-ns#"
   xmlns:svg="http://www.w3.org/2000/svg"
   xmlns="http://www.w3.org/2000/svg"
   xmlns:sodipodi="http://sodipodi.sourceforge.net/DTD/sodipodi-0.dtd"
   xmlns:inkscape="http://www.inkscape.org/namespaces/inkscape"
   width="339.8006mm"
   height="122.89632mm"
   viewBox="0 0 339.8006 122.89633"
   version="1.1"
   id="svg8"
   inkscape:version="0.92.3 (2405546, 2018-03-11)"
   sodipodi:docname="Full_expectation_logo.svg">
  <sodipodi:namedview
     id="base"
     pagecolor="#ffffff"
     bordercolor="#666666"
     borderopacity="1.0"
     inkscape:pageopacity="0.0"
     inkscape:pageshadow="2"
     inkscape:zoom="0.7"
     inkscape:cx="644.70299"
     inkscape:cy="64.461473"
     inkscape:document-units="mm"
     inkscape:current-layer="layer1"
     showgrid="false"
     showguides="true"
     inkscape:guide-bbox="true"
     inkscape:window-width="1871"
     inkscape:window-height="1025"
     inkscape:window-x="1969"
     inkscape:window-y="27"
     inkscape:window-maximized="1"
     fit-margin-top="0"
     fit-margin-left="0"
     fit-margin-right="0"
     fit-margin-bottom="0" />
  <defs
     id="defs2" />
  <metadata
     id="metadata5">
    <rdf:RDF>
      <cc:Work
         rdf:about="">
        <dc:format>image/svg+xml</dc:format>
        <dc:type
           rdf:resource="http://purl.org/dc/dcmitype/StillImage" />
        <dc:title />
      </cc:Work>
    </rdf:RDF>
  </metadata>
  <g
     transform="translate(-153.20535,-60.683068)"
     id="layer1"
     inkscape:groupmode="layer"
     inkscape:label="Layer 1">
    <g
       transform="matrix(-0.03466827,-0.49793798,1.4543634,0.05293616,144.73765,162.71011)"
       id="text1153"
       style="font-style:normal;font-variant:normal;font-weight:normal;font-stretch:normal;font-size:10.58333302px;line-height:1.25;font-family:AnjaliOldLipi;-inkscape-font-specification:AnjaliOldLipi;letter-spacing:0px;word-spacing:0px;fill:#000000;fill-opacity:1;stroke:none;stroke-width:35.29784012;stroke-miterlimit:4;stroke-dasharray:none"
       aria-label="XAI">
      <path
         inkscape:connector-curvature="0"
         id="path1161"
         style="font-style:normal;font-variant:normal;font-weight:normal;font-stretch:normal;line-height:5.25;font-family:Suruma;-inkscape-font-specification:Suruma;stroke-width:35.29784012;stroke-miterlimit:4;stroke-dasharray:none"
         d="m 135.40284,35.543829 c 0,0 21.4867,-6.202176 21.4867,-6.202176 0,0 11.36064,-12.804622 11.36064,-12.804622 0,0 2.4986,1.463 2.4986,1.463 0,0 -8.87434,9.955346 -8.87434,9.955346 0,0 17.37346,-4.978877 17.37346,-4.978877 0,0 1.15731,0.677642 1.15731,0.677642 0,0 -19.70855,5.710891 -19.70855,5.710891 0,0 -12.68573,13.683639 -12.68573,13.683639 0,0 -2.48382,-1.478471 -2.48382,-1.478471 0,0 10.43147,-11.021328 10.43147,-11.021328 0,0 -19.38174,5.693769 -19.38174,5.693769 0,0 -1.174,-0.698813 -1.174,-0.698813" />
      <path
         inkscape:connector-curvature="0"
         id="path1163"
         style="font-style:normal;font-variant:normal;font-weight:normal;font-stretch:normal;line-height:5.25;font-family:Suruma;-inkscape-font-specification:Suruma;stroke-width:35.29784012;stroke-miterlimit:4;stroke-dasharray:none"
         d="m 149.97438,44.2174 c 0,0 38.49524,-15.841323 38.49524,-15.841323 0,0 2.6727,1.564941 2.6727,1.564941 0,0 -27.05259,22.678411 -27.05259,22.678411 0,0 -2.30587,-1.372544 -2.30587,-1.372544 0,0 8.61044,-7.040489 8.61044,-7.040489 0,0 -7.0956,-4.201855 -7.0956,-4.201855 0,0 -12.06767,4.960869 -12.06767,4.960869 0,0 -1.25665,-0.74801 -1.25665,-0.74801 m 15.89289,-5.34363 c 0,0 6.45329,3.817179 6.45329,3.817179 0,0 14.76196,-12.511343 14.76196,-12.511343 0,0 -21.21525,8.694164 -21.21525,8.694164" />
      <path
         inkscape:connector-curvature="0"
         id="path1165"
         style="font-style:normal;font-variant:normal;font-weight:normal;font-stretch:normal;line-height:5.25;font-family:Suruma;-inkscape-font-specification:Suruma;stroke-width:35.29784012;stroke-miterlimit:4;stroke-dasharray:none"
         d="m 166.06027,53.792373 c 0,0 32.75847,-19.356601 32.75847,-19.356601 0,0 2.08925,1.223318 2.08925,1.223318 0,0 -32.76063,19.375609 -32.76063,19.375609 0,0 -2.08709,-1.242326 -2.08709,-1.242326" />
    </g>
    <path
       sodipodi:nodetypes="ccccccccccccccccccc"
       inkscape:connector-curvature="0"
       id="path826-5-7"
       d="m 159.05493,81.222214 32.33655,18.898816 32.40156,-18.787536 v 34.379056 l -32.40156,18.55717 -15.52184,-9.01688 v -14.59573 l 15.52184,8.96153 19.81992,-11.44303 v -5.24338 l -19.83809,11.45351 -19.7369,-11.39509 v 25.07698 l 19.83273,11.45044 32.19936,-18.59031 v 14.45701 l -32.24715,18.61791 -32.25952,-18.62505 z"
       style="fill:#0094ff;fill-opacity:1;stroke:#000000;stroke-width:1.5;stroke-linecap:butt;stroke-linejoin:miter;stroke-miterlimit:4;stroke-dasharray:none;stroke-opacity:1" />
    <path
       sodipodi:nodetypes="ccc"
       inkscape:connector-curvature="0"
       id="path832-6-6"
       d="m 158.64696,80.630164 32.72493,-19.078468 32.78022,19.193728"
       style="fill:none;stroke:#000000;stroke-width:1.5;stroke-linecap:butt;stroke-linejoin:miter;stroke-miterlimit:4;stroke-dasharray:none;stroke-opacity:1" />
    <g
       aria-label="XPECTATION"
       transform="matrix(0.28755564,0,0,0.28755564,18.314851,75.741523)"
       style="font-style:normal;font-weight:normal;font-size:192px;line-height:1.25;font-family:sans-serif;letter-spacing:0px;word-spacing:0px;fill:#000000;fill-opacity:1;stroke:none"
       id="flowRoot1275">
      <path
         d="m 778.25227,165.34898 36.8,40.8 q 0.8,0.8 0.8,1.76 0,0.8 -1.12,0.8 h -12.16 q -1.12,0 -2.4,-1.28 l -29.6,-33.6 -27.36,33.6 q -0.48,0.48 -1.12,0.96 -0.64,0.32 -1.28,0.32 h -11.2 q -1.12,0 -1.12,-0.96 0,-0.8 0.8,-1.6 l 65.44,-78.72 q 0.96,-1.28 2.24,-1.28 h 11.04 q 1.28,0 1.28,0.96 0,0.48 -0.8,1.6 z m -48.48,-36.64 q -0.8,-0.8 -0.8,-1.76 0,-0.8 1.12,-0.8 h 11.84 q 1.12,0 2.4,1.28 l 19.84,22.4 q 0.32,0.64 0.32,0.96 0,0.48 -0.32,0.8 l -5.44,6.88 q -0.48,0.48 -1.12,0.48 -0.48,0 -0.96,-0.48 z"
         style="font-style:normal;font-variant:normal;font-weight:normal;font-stretch:semi-expanded;font-size:160px;line-height:1.25;font-family:'neo latina';-inkscape-font-specification:'neo latina Semi-Expanded';letter-spacing:-3px;word-spacing:0px"
         id="path831" />
      <path
         d="m 837.74477,129.18898 q 0,-1.28 0.8,-2.08 0.8,-0.96 2.08,-0.96 h 48.16 q 5.28,0 9.76,2.08 4.64,1.92 8,5.44 3.36,3.36 5.28,8 2.08,4.48 2.08,9.76 0,5.28 -2.08,9.92 -1.92,4.48 -5.28,7.84 -3.36,3.36 -8,5.44 -4.48,1.92 -9.76,1.92 h -26.72 q -1.28,0 -2.08,-0.8 -0.8,-0.8 -0.8,-2.08 v -4.96 q 0,-1.28 0.8,-2.08 0.8,-0.8 2.08,-0.8 h 24.8 q 3.04,0 5.76,-1.12 2.88,-1.12 4.96,-3.04 2.08,-1.92 3.2,-4.48 1.28,-2.72 1.28,-5.76 0,-3.04 -1.28,-5.6 -1.12,-2.56 -3.2,-4.48 -2.08,-1.92 -4.96,-3.04 -2.72,-1.12 -5.76,-1.12 h -36.8 v 68.64 q 0,1.28 -0.96,2.08 -0.8,0.8 -2.08,0.8 h -6.4 q -1.28,0 -2.08,-0.8 -0.8,-0.8 -0.8,-2.08 z"
         style="font-style:normal;font-variant:normal;font-weight:normal;font-stretch:semi-expanded;font-size:160px;line-height:1.25;font-family:'neo latina';-inkscape-font-specification:'neo latina Semi-Expanded';letter-spacing:-3px;word-spacing:0px"
         id="path833" />
      <path
         d="m 953.00227,197.66898 h 56.80003 q 1.12,0 1.92,0.96 0.96,0.8 0.96,2.08 v 5.12 q 0,1.12 -0.96,2.08 -0.8,0.8 -1.92,0.8 h -66.24003 q -1.12,0 -2.08,-0.8 -0.8,-0.96 -0.8,-2.08 v -76.64 q 0,-1.28 0.8,-2.08 0.96,-0.96 2.08,-0.96 h 65.44003 q 1.28,0 2.08,0.96 0.96,0.8 0.96,2.08 v 5.12 q 0,1.12 -0.96,2.08 -0.8,0.8 -2.08,0.8 h -56.00003 z m 8.8,-34.56 q 0,-1.28 0.8,-2.08 0.8,-0.8 2.08,-0.8 h 40.16003 q 1.12,0 1.92,0.8 0.96,0.8 0.96,2.08 v 4.96 q 0,1.28 -0.96,2.08 -0.8,0.8 -1.92,0.8 h -40.16003 q -1.28,0 -2.08,-0.8 -0.8,-0.8 -0.8,-2.08 z"
         style="font-style:normal;font-variant:normal;font-weight:normal;font-stretch:semi-expanded;font-size:160px;line-height:1.25;font-family:'neo latina';-inkscape-font-specification:'neo latina Semi-Expanded';letter-spacing:-3px;word-spacing:0px"
         id="path835" />
      <path
         d="m 1038.1248,134.94898 q 0,-2.88 2.4,-5.76 2.4,-3.04 6.56,-3.04 h 62.72 q 1.28,0 2.08,0.96 0.8,0.8 0.8,1.92 v 5.28 q 0,1.28 -0.8,2.08 -0.8,0.8 -2.08,0.8 h -59.2 v 60.48 h 61.28 q 1.28,0 2.08,0.8 0.8,0.8 0.8,2.08 v 5.28 q 0,1.12 -0.8,2.08 -0.8,0.8 -2.08,0.8 h -64.96 q -3.84,0 -6.4,-2.72 -2.4,-2.72 -2.4,-6.08 z"
         style="font-style:normal;font-variant:normal;font-weight:normal;font-stretch:semi-expanded;font-size:160px;line-height:1.25;font-family:'neo latina';-inkscape-font-specification:'neo latina Semi-Expanded';letter-spacing:-3px;word-spacing:0px"
         id="path837" />
      <path
         d="m 1126.7698,129.02898 q 0,-1.12 0.8,-1.92 0.8,-0.96 2.08,-0.96 h 74.72 q 1.28,0 2.08,0.96 0.8,0.8 0.8,1.92 v 5.12 q 0,3.04 -2.88,3.04 h -74.72 q -1.28,0 -2.08,-0.8 -0.8,-0.96 -0.8,-2.24 z m 33.92,19.84 q 0,-1.28 0.8,-2.08 0.96,-0.8 2.24,-0.8 h 6.4 q 1.28,0 2.08,0.8 0.8,0.8 0.8,2.08 v 56.96 q 0,1.28 -0.8,2.08 -0.8,0.8 -2.08,0.8 h -6.4 q -1.28,0 -2.24,-0.8 -0.8,-0.8 -0.8,-2.08 z"
         style="font-style:normal;font-variant:normal;font-weight:normal;font-stretch:semi-expanded;font-size:160px;line-height:1.25;font-family:'neo latina';-inkscape-font-specification:'neo latina Semi-Expanded';letter-spacing:-3px;word-spacing:0px"
         id="path839" />
      <path
         d="m 1293.2148,206.14898 q 0.32,0.96 0.32,1.12 0,1.44 -1.6,1.44 h -8.96 q -1.28,0 -1.92,-1.28 l -9.12,-19.04 h -38.4 q -1.12,0 -1.12,-1.12 0,-0.48 0.16,-0.8 l 3.52,-7.04 q 0.64,-1.6 2.4,-1.6 h 28.32 l -19.52,-42.08 -34.88,71.68 q -0.64,1.28 -1.92,1.28 h -8 q -1.6,0 -1.6,-1.44 0,-0.16 0.32,-1.12 l 37.92,-76.96 q 0.64,-1.28 1.76,-2.08 1.28,-0.96 2.56,-0.96 h 7.52 q 1.28,0 2.4,0.96 1.28,0.8 1.92,2.08 z"
         style="font-style:normal;font-variant:normal;font-weight:normal;font-stretch:semi-expanded;font-size:160px;line-height:1.25;font-family:'neo latina';-inkscape-font-specification:'neo latina Semi-Expanded';letter-spacing:-3px;word-spacing:0px"
         id="path841" />
      <path
         d="m 1287.9573,129.02898 q 0,-1.12 0.8,-1.92 0.8,-0.96 2.08,-0.96 h 74.72 q 1.28,0 2.08,0.96 0.8,0.8 0.8,1.92 v 5.12 q 0,3.04 -2.88,3.04 h -74.72 q -1.28,0 -2.08,-0.8 -0.8,-0.96 -0.8,-2.24 z m 33.92,19.84 q 0,-1.28 0.8,-2.08 0.96,-0.8 2.24,-0.8 h 6.4 q 1.28,0 2.08,0.8 0.8,0.8 0.8,2.08 v 56.96 q 0,1.28 -0.8,2.08 -0.8,0.8 -2.08,0.8 h -6.4 q -1.28,0 -2.24,-0.8 -0.8,-0.8 -0.8,-2.08 z"
         style="font-style:normal;font-variant:normal;font-weight:normal;font-stretch:semi-expanded;font-size:160px;line-height:1.25;font-family:'neo latina';-inkscape-font-specification:'neo latina Semi-Expanded';letter-spacing:-3px;word-spacing:0px"
         id="path843" />
      <path
         d="m 1386.1473,129.02898 q 0,-1.28 0.8,-2.08 0.96,-0.8 2.08,-0.8 h 6.72 q 1.12,0 1.92,0.8 0.96,0.8 0.96,2.08 v 76.8 q 0,1.12 -0.96,2.08 -0.8,0.8 -1.92,0.8 h -6.72 q -1.12,0 -2.08,-0.8 -0.8,-0.96 -0.8,-2.08 z"
         style="font-style:normal;font-variant:normal;font-weight:normal;font-stretch:semi-expanded;font-size:160px;line-height:1.25;font-family:'neo latina';-inkscape-font-specification:'neo latina Semi-Expanded';letter-spacing:-3px;word-spacing:0px"
         id="path845" />
      <path
         d="m 1433.1248,137.02898 q 0,-1.92 0.96,-3.84 1.12,-1.92 2.56,-3.36 1.6,-1.6 3.52,-2.56 1.92,-1.12 3.84,-1.12 h 64.32 q 1.92,0 3.84,1.12 1.92,0.96 3.36,2.56 1.6,1.44 2.56,3.36 1.12,1.92 1.12,3.84 v 60.8 q 0,1.92 -1.12,3.84 -0.96,1.92 -2.56,3.52 -1.44,1.44 -3.36,2.56 -1.92,0.96 -3.84,0.96 h -64.32 q -1.92,0 -3.84,-0.96 -1.92,-1.12 -3.52,-2.56 -1.44,-1.6 -2.56,-3.52 -0.96,-1.92 -0.96,-3.84 z m 12.48,60.64 h 61.12 v -60.48 h -61.12 z"
         style="font-style:normal;font-variant:normal;font-weight:normal;font-stretch:semi-expanded;font-size:160px;line-height:1.25;font-family:'neo latina';-inkscape-font-specification:'neo latina Semi-Expanded';letter-spacing:-3px;word-spacing:0px"
         id="path847" />
      <path
         d="m 1624.6173,129.18898 q 0,-1.28 0.8,-2.08 0.96,-0.96 2.24,-0.96 h 5.28 q 1.28,0 2.08,0.96 0.96,0.8 0.96,2.08 v 76.64 q 0,1.28 -0.96,2.08 -0.8,0.8 -2.08,0.8 h -5.92 q -1.12,0 -2.72,-0.64 -1.44,-0.8 -2.4,-1.92 l -67.2,-77.44 q -0.8,-0.8 -0.8,-1.76 0,-0.8 1.12,-0.8 h 9.76 q 1.12,0 2.4,1.28 l 57.44,66.4 z m -59.36,76.64 q 0,1.28 -0.8,2.08 -0.8,0.8 -2.08,0.8 h -5.44 q -1.28,0 -2.08,-0.8 -0.8,-0.8 -0.8,-2.08 v -62.88 q 0,-0.96 0.64,-0.96 0.64,0 1.92,1.44 l 7.52,8.8 q 1.12,1.44 1.12,2.56 z"
         style="font-style:normal;font-variant:normal;font-weight:normal;font-stretch:semi-expanded;font-size:160px;line-height:1.25;font-family:'neo latina';-inkscape-font-specification:'neo latina Semi-Expanded';letter-spacing:-3px;word-spacing:0px"
         id="path849" />
    </g>
    <g
       aria-label="Personalized Explainable Artificial Intelligence for 
decentralized agents with heterogeneous knowledge"
       transform="matrix(0.28020234,0,0,0.28020234,-104.19957,69.514056)"
       style="font-style:normal;font-variant:normal;font-weight:normal;font-stretch:normal;font-size:40px;line-height:1.25;font-family:NEO-LATINA;-inkscape-font-specification:NEO-LATINA;letter-spacing:0px;word-spacing:0px;fill:#000000;fill-opacity:1;stroke:none"
       id="flowRoot869">
      <path
         d="m 919.93182,333.8887 q 0,-0.37334 0.23334,-0.60667 0.23333,-0.28 0.60666,-0.28 h 14.04667 q 1.54,0 2.84667,0.60667 1.35333,0.56 2.33333,1.58666 0.98,0.98 1.54,2.33334 0.60667,1.30666 0.60667,2.84666 0,1.54 -0.60667,2.89334 -0.56,1.30666 -1.54,2.28666 -0.98,0.98 -2.33333,1.58667 -1.30667,0.56 -2.84667,0.56 h -7.79333 q -0.37334,0 -0.60667,-0.23333 -0.23333,-0.23334 -0.23333,-0.60667 v -1.44667 q 0,-0.37333 0.23333,-0.60666 0.23333,-0.23334 0.60667,-0.23334 h 7.23333 q 0.88667,0 1.68,-0.32666 0.84,-0.32667 1.44667,-0.88667 0.60666,-0.56 0.93333,-1.30667 0.37333,-0.79333 0.37333,-1.68 0,-0.88666 -0.37333,-1.63333 -0.32667,-0.74667 -0.93333,-1.30667 -0.60667,-0.56 -1.44667,-0.88666 -0.79333,-0.32667 -1.68,-0.32667 h -10.73333 v 20.02 q 0,0.37333 -0.28,0.60667 -0.23334,0.23333 -0.60667,0.23333 h -1.86667 q -0.37333,0 -0.60666,-0.23333 -0.23334,-0.23334 -0.23334,-0.60667 z"
         style="font-style:normal;font-variant:normal;font-weight:normal;font-stretch:normal;font-size:46.66666794px;line-height:0;font-family:'neo latina';-inkscape-font-specification:'neo latina';word-spacing:0px"
         id="path860" />
      <path
         d="m 952.46359,354.14203 h 14.14 q 0.32667,0 0.56,0.23333 0.23334,0.23334 0.23334,0.56 v 1.35334 q 0,0.32666 -0.23334,0.56 -0.23333,0.23333 -0.56,0.23333 h -16.52 q -0.32666,0 -0.56,-0.23333 -0.23333,-0.23334 -0.23333,-0.56 v -18.2 q 0,-0.32667 0.23333,-0.56 0.23334,-0.23334 0.56,-0.23334 h 16.33334 q 0.32666,0 0.56,0.23334 0.23333,0.23333 0.23333,0.56 v 1.35333 q 0,0.32667 -0.23333,0.56 -0.23334,0.23333 -0.56,0.23333 h -13.95334 z m 2.42667,-8.02667 q 0,-0.32666 0.23333,-0.56 0.23334,-0.23333 0.56,-0.23333 h 9.56667 q 0.32667,0 0.56,0.23333 0.23333,0.23334 0.23333,0.56 v 1.35334 q 0,0.37333 -0.23333,0.60666 -0.23333,0.18667 -0.56,0.18667 h -9.56667 q -0.32666,0 -0.56,-0.18667 -0.23333,-0.23333 -0.23333,-0.60666 z"
         style="font-style:normal;font-variant:normal;font-weight:normal;font-stretch:normal;font-size:46.66666794px;line-height:0;font-family:'neo latina';-inkscape-font-specification:'neo latina';word-spacing:0px"
         id="path862" />
      <path
         d="m 985.99068,337.29536 q 1.30667,0 2.38,0.46667 1.12,0.46667 1.91333,1.30667 0.79334,0.79333 1.26,1.86666 0.46667,1.07334 0.46667,2.33334 0,2.24 -1.30667,3.82666 -1.30666,1.54 -3.31333,2.00667 l 5.32,7.18667 q 0.14,0.23333 0.14,0.46666 0,0.32667 -0.37333,0.32667 h -2.56667 q -0.14,0 -0.32667,-0.0933 -0.14,-0.0933 -0.23333,-0.23334 l -5.55333,-7.46666 h -3.54667 q -0.32667,0 -0.56,-0.23334 -0.23333,-0.23333 -0.23333,-0.56 v -1.21333 q 0,-0.32667 0.23333,-0.56 0.23333,-0.23333 0.56,-0.23333 h 5.6 q 1.4,0 2.28667,-0.88667 0.88666,-0.88667 0.88666,-2.28667 0,-1.30666 -0.93333,-2.19333 -0.93333,-0.88667 -2.24,-0.88667 h -8.86667 v 16.05334 q 0,0.32666 -0.23333,0.56 -0.23333,0.23333 -0.56,0.23333 h -1.68 q -0.32667,0 -0.56,-0.23333 -0.23333,-0.23334 -0.23333,-0.56 v -18.2 q 0,-0.32667 0.23333,-0.56 0.23333,-0.23334 0.56,-0.23334 z"
         style="font-style:normal;font-variant:normal;font-weight:normal;font-stretch:normal;font-size:46.66666794px;line-height:0;font-family:'neo latina';-inkscape-font-specification:'neo latina';word-spacing:0px"
         id="path864" />
      <path
         d="m 998.54255,351.9487 q 0,-0.32667 0.23334,-0.56 0.23333,-0.23334 0.56,-0.23334 h 1.54001 q 0.6533,0 0.7467,0.65334 0.2333,0.98 0.98,1.68 0.7466,0.65333 1.7733,0.65333 h 8.0267 q 1.1666,0 1.96,-0.84 0.7933,-0.88667 0.7933,-2.05333 0,-1.16667 -0.7933,-2.00667 -0.7934,-0.84 -1.96,-0.84 h -7.7 q -1.1667,0 -2.1934,-0.42 -0.98,-0.42 -1.7733,-1.16667 -0.74668,-0.74666 -1.21335,-1.72666 -0.42,-1.02667 -0.42,-2.19334 0,-1.16666 0.42,-2.14666 0.46667,-1.02667 1.21335,-1.77334 0.7933,-0.79333 1.7733,-1.21333 1.0267,-0.46667 2.1934,-0.46667 h 7.6066 q 1.0267,0 1.96,0.37334 0.98,0.37333 1.68,1.02666 0.7467,0.65334 1.2134,1.54 0.5133,0.88667 0.6533,1.91334 0,0.79333 -0.7933,0.79333 h -1.4934 q -0.7,0 -0.7933,-0.65333 -0.1867,-0.88667 -0.8867,-1.44667 -0.7,-0.60667 -1.6333,-0.60667 h -7.56 q -1.0733,0 -1.82,0.79334 -0.7467,0.74666 -0.7467,1.82 0,1.07333 0.7467,1.86666 0.7467,0.79334 1.82,0.79334 h 7.7 q 1.2133,0 2.2867,0.46666 1.0733,0.42 1.8666,1.21334 0.7934,0.74666 1.26,1.82 0.4667,1.02666 0.4667,2.24 0,1.21333 -0.4667,2.28666 -0.4666,1.02667 -1.26,1.82 -0.7933,0.79334 -1.8666,1.26 -1.0734,0.46667 -2.2867,0.46667 h -8.0267 q -1.12,0 -2.1466,-0.37333 -0.98,-0.42 -1.7734,-1.12 -0.74665,-0.7 -1.25998,-1.63334 -0.51333,-0.93333 -0.60667,-2.00666 z"
         style="font-style:normal;font-variant:normal;font-weight:normal;font-stretch:normal;font-size:46.66666794px;line-height:0;font-family:'neo latina';-inkscape-font-specification:'neo latina';word-spacing:0px"
         id="path866" />
      <path
         d="m 1025.3883,340.23536 q 0,-0.51333 0.2333,-1.02666 0.28,-0.56 0.7,-0.98 0.42,-0.42 0.9334,-0.65334 0.56,-0.28 1.0733,-0.28 h 15.1667 q 0.56,0 1.0733,0.28 0.5133,0.23334 0.9333,0.65334 0.42,0.42 0.6534,0.98 0.28,0.51333 0.28,1.02666 v 13.90667 q 0,0.51333 -0.28,1.07333 -0.2334,0.51334 -0.6534,0.93334 -0.42,0.42 -0.9333,0.7 -0.5133,0.23333 -1.0733,0.23333 h -15.1667 q -0.5133,0 -1.0733,-0.23333 -0.5134,-0.28 -0.9334,-0.7 -0.42,-0.42 -0.7,-0.93334 -0.2333,-0.56 -0.2333,-1.07333 z m 3.22,13.90667 h 14.6067 v -13.90667 h -14.6067 z"
         style="font-style:normal;font-variant:normal;font-weight:normal;font-stretch:normal;font-size:46.66666794px;line-height:0;font-family:'neo latina';-inkscape-font-specification:'neo latina';word-spacing:0px"
         id="path868" />
      <path
         d="m 1054.2903,342.33536 q 0,-0.23333 0.14,-0.23333 0.093,0 0.42,0.23333 l 2.0533,2.05334 q 0.1867,0.23333 0.3267,0.51333 0.14,0.23333 0.14,0.42 v 10.96667 q 0,0.32666 -0.2334,0.56 -0.1866,0.23333 -0.56,0.23333 h -1.4933 q -0.3267,0 -0.56,-0.23333 -0.2333,-0.23334 -0.2333,-0.56 z m 0,-4.24666 q 0,-0.37334 0.2333,-0.56 0.2333,-0.23334 0.56,-0.23334 h 0.9333 q 0.3267,0 0.7467,0.23334 0.4667,0.18666 0.84,0.56 l 14.1867,14.42 v -14.42 q 0,-0.32667 0.1866,-0.56 0.2334,-0.23334 0.6067,-0.23334 h 1.4933 q 0.3267,0 0.56,0.23334 0.2334,0.23333 0.2334,0.56 v 18.2 q 0,0.32666 -0.2334,0.56 -0.2333,0.23333 -0.56,0.23333 h -1.54 q -0.42,0 -0.6066,-0.28 l -17.64,-17.92 z"
         style="font-style:normal;font-variant:normal;font-weight:normal;font-stretch:normal;font-size:46.66666794px;line-height:0;font-family:'neo latina';-inkscape-font-specification:'neo latina';word-spacing:0px"
         id="path870" />
      <path
         d="m 1090.0924,338.0887 q 0.14,-0.32667 0.4666,-0.56 0.3734,-0.23334 0.7,-0.23334 h 1.68 q 0.3267,0 0.6534,0.23334 0.3733,0.23333 0.56,0.56 l 9.66,18.2 q 0.093,0.28 0.093,0.37333 0,0.42 -0.4667,0.42 h -2.1466 q -0.5134,0 -0.84,-0.56 l -2.1934,-4.10667 h -9.1 q -0.4666,0 -0.4666,-0.42 0,-0.0933 0.093,-0.37333 l 0.7467,-1.44667 q 0.3266,-0.56 0.84,-0.56 h 6.3933 l -4.7133,-9.19333 -8.2134,16.1 q -0.093,0.23333 -0.3733,0.42 -0.2333,0.14 -0.4667,0.14 h -2.0066 q -0.4667,0 -0.4667,-0.42 0,-0.0933 0.093,-0.37333 z"
         style="font-style:normal;font-variant:normal;font-weight:normal;font-stretch:normal;font-size:46.66666794px;line-height:0;font-family:'neo latina';-inkscape-font-specification:'neo latina';word-spacing:0px"
         id="path872" />
      <path
         d="m 1109.5246,338.0887 q 0,-0.32667 0.2334,-0.56 0.2333,-0.23334 0.56,-0.23334 h 1.68 q 0.3266,0 0.56,0.23334 0.2333,0.23333 0.2333,0.56 v 16.05333 h 13.1133 q 0.3267,0 0.56,0.23333 0.2334,0.23334 0.2334,0.56 v 1.35334 q 0,0.32666 -0.2334,0.56 -0.2333,0.23333 -0.56,0.23333 h -15.5866 q -0.3267,0 -0.56,-0.23333 -0.2334,-0.23334 -0.2334,-0.56 z"
         style="font-style:normal;font-variant:normal;font-weight:normal;font-stretch:normal;font-size:46.66666794px;line-height:0;font-family:'neo latina';-inkscape-font-specification:'neo latina';word-spacing:0px"
         id="path874" />
      <path
         d="m 1131.8532,338.0887 q 0,-0.32667 0.2333,-0.56 0.2333,-0.23334 0.56,-0.23334 h 1.7733 q 0.3267,0 0.56,0.23334 0.2334,0.23333 0.2334,0.56 v 18.2 q 0,0.32666 -0.2334,0.56 -0.2333,0.23333 -0.56,0.23333 h -1.7733 q -0.3267,0 -0.56,-0.23333 -0.2333,-0.23334 -0.2333,-0.56 z"
         style="font-style:normal;font-variant:normal;font-weight:normal;font-stretch:normal;font-size:46.66666794px;line-height:0;font-family:'neo latina';-inkscape-font-specification:'neo latina';word-spacing:0px"
         id="path876" />
      <path
         d="m 1143.4797,338.0887 q 0,-0.37334 0.2334,-0.56 0.2333,-0.23334 0.56,-0.23334 h 16.3333 q 0.4667,0 0.4667,0.32667 0,1.07333 -0.7934,1.86667 -0.7933,0.74666 -1.9133,0.74666 h -14.0933 q -0.3267,0 -0.56,-0.23333 -0.2334,-0.23333 -0.2334,-0.56 z m -1.2133,17.87333 q 0,-0.37333 0.14,-0.7 0.1867,-0.32667 0.42,-0.7 l 10.5933,-11.9 q 0.1867,-0.18667 0.42,-0.32667 0.2334,-0.14 0.4667,-0.14 h 3.0333 q 0.28,0 0.28,0.23334 0,0.14 -0.1866,0.32666 l -10.1267,11.38667 h 12.9267 q 0.3733,0 0.56,0.23333 0.2333,0.23334 0.2333,0.56 v 1.35334 q 0,0.32666 -0.2333,0.56 -0.1867,0.23333 -0.56,0.23333 h -17.1734 q -0.3266,0 -0.56,-0.28 -0.2333,-0.28 -0.2333,-0.84 z"
         style="font-style:normal;font-variant:normal;font-weight:normal;font-stretch:normal;font-size:46.66666794px;line-height:0;font-family:'neo latina';-inkscape-font-specification:'neo latina';word-spacing:0px"
         id="path878" />
      <path
         d="m 1171.8516,354.14203 h 14.14 q 0.3267,0 0.56,0.23333 0.2334,0.23334 0.2334,0.56 v 1.35334 q 0,0.32666 -0.2334,0.56 -0.2333,0.23333 -0.56,0.23333 h -16.52 q -0.3266,0 -0.56,-0.23333 -0.2333,-0.23334 -0.2333,-0.56 v -18.2 q 0,-0.32667 0.2333,-0.56 0.2334,-0.23334 0.56,-0.23334 h 16.3334 q 0.3266,0 0.56,0.23334 0.2333,0.23333 0.2333,0.56 v 1.35333 q 0,0.32667 -0.2333,0.56 -0.2334,0.23333 -0.56,0.23333 h -13.9534 z m 2.4267,-8.02667 q 0,-0.32666 0.2333,-0.56 0.2334,-0.23333 0.56,-0.23333 h 9.5667 q 0.3267,0 0.56,0.23333 0.2333,0.23334 0.2333,0.56 v 1.35334 q 0,0.37333 -0.2333,0.60666 -0.2333,0.18667 -0.56,0.18667 h -9.5667 q -0.3266,0 -0.56,-0.18667 -0.2333,-0.23333 -0.2333,-0.60666 z"
         style="font-style:normal;font-variant:normal;font-weight:normal;font-stretch:normal;font-size:46.66666794px;line-height:0;font-family:'neo latina';-inkscape-font-specification:'neo latina';word-spacing:0px"
         id="path880" />
      <path
         d="m 1200.2921,354.93536 q 0,-0.32666 0.2333,-0.56 0.2333,-0.23333 0.56,-0.23333 h 9.4733 q 0.56,0 0.9334,-0.37333 0.42,-0.42 0.42,-0.98 v -11.2 q 0,-0.56 -0.42,-0.93334 -0.3734,-0.42 -0.9334,-0.42 h -12.6933 v 16.05334 q 0,0.32666 -0.2333,0.56 -0.2334,0.23333 -0.56,0.23333 h -1.7734 q -0.3266,0 -0.56,-0.23333 -0.2333,-0.23334 -0.2333,-0.56 v -18.2 q 0,-0.32667 0.2333,-0.56 0.2334,-0.23334 0.56,-0.23334 h 15.7267 q 1.7733,0 2.9867,1.21334 1.2133,1.21333 1.2133,2.98666 v 11.38667 q 0,1.77333 -1.2133,2.98667 -1.2134,1.21333 -2.9867,1.21333 h -9.94 q -0.3267,0 -0.56,-0.23333 -0.2333,-0.23334 -0.2333,-0.56 z"
         style="font-style:normal;font-variant:normal;font-weight:normal;font-stretch:normal;font-size:46.66666794px;line-height:0;font-family:'neo latina';-inkscape-font-specification:'neo latina';word-spacing:0px"
         id="path882" />
      <path
         d="m 1244.2673,353.86203 h 16.5667 q 0.3267,0 0.56,0.28 0.28,0.23333 0.28,0.60667 v 1.49333 q 0,0.32667 -0.28,0.60667 -0.2333,0.23333 -0.56,0.23333 h -19.32 q -0.3267,0 -0.6067,-0.23333 -0.2333,-0.28 -0.2333,-0.60667 V 333.8887 q 0,-0.37334 0.2333,-0.60667 0.28,-0.28 0.6067,-0.28 h 19.0867 q 0.3733,0 0.6066,0.28 0.28,0.23333 0.28,0.60667 v 1.49333 q 0,0.32667 -0.28,0.60667 -0.2333,0.23333 -0.6066,0.23333 h -16.3334 z m 2.5667,-10.08 q 0,-0.37333 0.2333,-0.60667 0.2334,-0.23333 0.6067,-0.23333 h 11.7133 q 0.3267,0 0.56,0.23333 0.28,0.23334 0.28,0.60667 v 1.44667 q 0,0.37333 -0.28,0.60666 -0.2333,0.23334 -0.56,0.23334 h -11.7133 q -0.3733,0 -0.6067,-0.23334 -0.2333,-0.23333 -0.2333,-0.60666 z"
         style="font-style:normal;font-variant:normal;font-weight:normal;font-stretch:normal;font-size:46.66666794px;line-height:0;font-family:'neo latina';-inkscape-font-specification:'neo latina';word-spacing:0px"
         id="path884" />
      <path
         d="m 1274.8698,342.75536 q 0.28,0.37334 0.28,0.46667 0,0.14 -0.2334,0.46667 l -1.0733,1.30666 q -0.14,0.23334 -0.3734,0.23334 -0.14,0 -0.28,-0.0933 -0.093,-0.14 -0.28,-0.32666 l -6.44,-6.72 q -0.28,-0.32667 -0.28,-0.56 0,-0.23334 0.3734,-0.23334 h 2.38 q 0.3733,0 0.6533,0.14 0.3267,0.14 0.56,0.28 0.2333,0.18667 0.42,0.37334 z m 12.8333,13.53334 q 0.28,0.28 0.28,0.51333 0,0.28 -0.3733,0.28 h -2.5667 q -0.3267,0 -0.7467,-0.23333 -0.42,-0.23334 -0.7466,-0.56 l -6.8134,-7.32667 -6.4867,7.79333 q -0.2333,0.32667 -0.6066,0.32667 h -2.4267 q -0.3733,0 -0.3733,-0.32667 0,-0.14 0.2333,-0.46666 l 15.5867,-18.66667 q 0.2333,-0.32667 0.6067,-0.32667 h 2.4733 q 0.3733,0 0.3733,0.28 0,0.18667 -0.2333,0.51334 l -7.2333,8.58666 z"
         style="font-style:normal;font-variant:normal;font-weight:normal;font-stretch:normal;font-size:46.66666794px;line-height:0;font-family:'neo latina';-inkscape-font-specification:'neo latina';word-spacing:0px"
         id="path886" />
      <path
         d="m 1293.6392,338.0887 q 0,-0.32667 0.2334,-0.56 0.2333,-0.23334 0.56,-0.23334 h 12.3666 q 1.26,0 2.3334,0.46667 1.0733,0.46667 1.8666,1.30667 0.84,0.79333 1.3067,1.91333 0.4667,1.07333 0.4667,2.33333 0,1.26 -0.4667,2.33334 -0.4667,1.07333 -1.3067,1.91333 -0.7933,0.79333 -1.8666,1.26 -1.0734,0.46667 -2.3334,0.46667 h -6.6733 q -0.3267,0 -0.56,-0.23334 -0.2333,-0.23333 -0.2333,-0.56 v -1.26 q 0,-0.37333 0.2333,-0.56 0.2333,-0.23333 0.56,-0.23333 h 6.44 q 1.4467,0 2.2867,-0.88667 0.8866,-0.93333 0.8866,-2.24 0,-1.30666 -0.9333,-2.19333 -0.9333,-0.88667 -2.24,-0.88667 h -9.6133 v 16.05334 q 0,0.32666 -0.2334,0.56 -0.2333,0.23333 -0.56,0.23333 h -1.7266 q -0.3267,0 -0.56,-0.23333 -0.2334,-0.23334 -0.2334,-0.56 z"
         style="font-style:normal;font-variant:normal;font-weight:normal;font-stretch:normal;font-size:46.66666794px;line-height:0;font-family:'neo latina';-inkscape-font-specification:'neo latina';word-spacing:0px"
         id="path888" />
      <path
         d="m 1318.7043,338.0887 q 0,-0.32667 0.2334,-0.56 0.2333,-0.23334 0.56,-0.23334 h 1.68 q 0.3266,0 0.56,0.23334 0.2333,0.23333 0.2333,0.56 v 16.05333 h 13.1133 q 0.3267,0 0.56,0.23333 0.2334,0.23334 0.2334,0.56 v 1.35334 q 0,0.32666 -0.2334,0.56 -0.2333,0.23333 -0.56,0.23333 h -15.5866 q -0.3267,0 -0.56,-0.23333 -0.2334,-0.23334 -0.2334,-0.56 z"
         style="font-style:normal;font-variant:normal;font-weight:normal;font-stretch:normal;font-size:46.66666794px;line-height:0;font-family:'neo latina';-inkscape-font-specification:'neo latina';word-spacing:0px"
         id="path890" />
      <path
         d="m 1349.1288,338.0887 q 0.14,-0.32667 0.4667,-0.56 0.3733,-0.23334 0.7,-0.23334 h 1.68 q 0.3267,0 0.6533,0.23334 0.3734,0.23333 0.56,0.56 l 9.66,18.2 q 0.093,0.28 0.093,0.37333 0,0.42 -0.4667,0.42 h -2.1467 q -0.5133,0 -0.84,-0.56 l -2.1933,-4.10667 h -9.1 q -0.4667,0 -0.4667,-0.42 0,-0.0933 0.093,-0.37333 l 0.7466,-1.44667 q 0.3267,-0.56 0.84,-0.56 h 6.3934 l -4.7134,-9.19333 -8.2133,16.1 q -0.093,0.23333 -0.3733,0.42 -0.2334,0.14 -0.4667,0.14 h -2.0067 q -0.4666,0 -0.4666,-0.42 0,-0.0933 0.093,-0.37333 z"
         style="font-style:normal;font-variant:normal;font-weight:normal;font-stretch:normal;font-size:46.66666794px;line-height:0;font-family:'neo latina';-inkscape-font-specification:'neo latina';word-spacing:0px"
         id="path892" />
      <path
         d="m 1368.4678,338.0887 q 0,-0.32667 0.2333,-0.56 0.2333,-0.23334 0.56,-0.23334 h 1.7733 q 0.3267,0 0.56,0.23334 0.2334,0.23333 0.2334,0.56 v 18.2 q 0,0.32666 -0.2334,0.56 -0.2333,0.23333 -0.56,0.23333 h -1.7733 q -0.3267,0 -0.56,-0.23333 -0.2333,-0.23334 -0.2333,-0.56 z"
         style="font-style:normal;font-variant:normal;font-weight:normal;font-stretch:normal;font-size:46.66666794px;line-height:0;font-family:'neo latina';-inkscape-font-specification:'neo latina';word-spacing:0px"
         id="path894" />
      <path
         d="m 1379.9543,342.33536 q 0,-0.23333 0.14,-0.23333 0.093,0 0.42,0.23333 l 2.0534,2.05334 q 0.1866,0.23333 0.3266,0.51333 0.14,0.23333 0.14,0.42 v 10.96667 q 0,0.32666 -0.2333,0.56 -0.1867,0.23333 -0.56,0.23333 h -1.4933 q -0.3267,0 -0.56,-0.23333 -0.2334,-0.23334 -0.2334,-0.56 z m 0,-4.24666 q 0,-0.37334 0.2334,-0.56 0.2333,-0.23334 0.56,-0.23334 h 0.9333 q 0.3267,0 0.7467,0.23334 0.4666,0.18666 0.84,0.56 l 14.1866,14.42 v -14.42 q 0,-0.32667 0.1867,-0.56 0.2333,-0.23334 0.6067,-0.23334 h 1.4933 q 0.3267,0 0.56,0.23334 0.2333,0.23333 0.2333,0.56 v 18.2 q 0,0.32666 -0.2333,0.56 -0.2333,0.23333 -0.56,0.23333 h -1.54 q -0.42,0 -0.6067,-0.28 l -17.64,-17.92 z"
         style="font-style:normal;font-variant:normal;font-weight:normal;font-stretch:normal;font-size:46.66666794px;line-height:0;font-family:'neo latina';-inkscape-font-specification:'neo latina';word-spacing:0px"
         id="path896" />
      <path
         d="m 1415.7564,338.0887 q 0.14,-0.32667 0.4667,-0.56 0.3733,-0.23334 0.7,-0.23334 h 1.68 q 0.3267,0 0.6533,0.23334 0.3734,0.23333 0.56,0.56 l 9.66,18.2 q 0.093,0.28 0.093,0.37333 0,0.42 -0.4667,0.42 h -2.1467 q -0.5133,0 -0.84,-0.56 l -2.1933,-4.10667 h -9.1 q -0.4667,0 -0.4667,-0.42 0,-0.0933 0.093,-0.37333 l 0.7466,-1.44667 q 0.3267,-0.56 0.84,-0.56 h 6.3934 l -4.7134,-9.19333 -8.2133,16.1 q -0.093,0.23333 -0.3734,0.42 -0.2333,0.14 -0.4666,0.14 h -2.0067 q -0.4667,0 -0.4667,-0.42 0,-0.0933 0.093,-0.37333 z"
         style="font-style:normal;font-variant:normal;font-weight:normal;font-stretch:normal;font-size:46.66666794px;line-height:0;font-family:'neo latina';-inkscape-font-specification:'neo latina';word-spacing:0px"
         id="path898" />
      <path
         d="m 1435.1887,338.0887 q 0,-0.32667 0.2333,-0.56 0.2334,-0.23334 0.56,-0.23334 h 11.8067 q 1.12,0 2.1467,0.42 1.0266,0.42 1.7733,1.16667 0.7933,0.74667 1.26,1.77333 0.4667,0.98 0.4667,2.14667 0,1.12 -0.5134,2.14667 -0.4666,0.98 -1.26,1.77333 1.1667,0.79333 1.8667,2.05333 0.7467,1.21334 0.7467,2.66 0,1.21334 -0.4667,2.24 -0.4667,1.02667 -1.26,1.77334 -0.7467,0.74666 -1.7733,1.21333 -1.0267,0.42 -2.1934,0.42 h -12.6 q -0.3266,0 -0.56,-0.23333 -0.2333,-0.23334 -0.2333,-0.56 z m 3.22,2.14666 v 13.90667 h 9.38 q 1.4933,0 2.38,-0.88667 0.9333,-0.93333 0.9333,-2.14666 0,-1.26 -0.9333,-2.14667 -0.8867,-0.88667 -2.38,-0.88667 h -6.1133 q -0.3267,0 -0.56,-0.23333 -0.2334,-0.23333 -0.2334,-0.56 v -1.07333 q 0,-0.37334 0.2334,-0.56 0.2333,-0.23334 0.56,-0.23334 h 5.7866 q 1.3534,0 2.0534,-0.74666 0.7,-0.79334 0.7,-1.86667 0,-1.07333 -0.7934,-1.82 -0.7466,-0.74667 -1.96,-0.74667 z"
         style="font-style:normal;font-variant:normal;font-weight:normal;font-stretch:normal;font-size:46.66666794px;line-height:0;font-family:'neo latina';-inkscape-font-specification:'neo latina';word-spacing:0px"
         id="path900" />
      <path
         d="m 1461.7121,338.0887 q 0,-0.32667 0.2334,-0.56 0.2333,-0.23334 0.56,-0.23334 h 1.68 q 0.3266,0 0.56,0.23334 0.2333,0.23333 0.2333,0.56 v 16.05333 h 13.1133 q 0.3267,0 0.56,0.23333 0.2334,0.23334 0.2334,0.56 v 1.35334 q 0,0.32666 -0.2334,0.56 -0.2333,0.23333 -0.56,0.23333 h -15.5866 q -0.3267,0 -0.56,-0.23333 -0.2334,-0.23334 -0.2334,-0.56 z"
         style="font-style:normal;font-variant:normal;font-weight:normal;font-stretch:normal;font-size:46.66666794px;line-height:0;font-family:'neo latina';-inkscape-font-specification:'neo latina';word-spacing:0px"
         id="path902" />
      <path
         d="m 1487.3073,354.14203 h 14.14 q 0.3267,0 0.56,0.23333 0.2334,0.23334 0.2334,0.56 v 1.35334 q 0,0.32666 -0.2334,0.56 -0.2333,0.23333 -0.56,0.23333 h -16.52 q -0.3266,0 -0.56,-0.23333 -0.2333,-0.23334 -0.2333,-0.56 v -18.2 q 0,-0.32667 0.2333,-0.56 0.2334,-0.23334 0.56,-0.23334 h 16.3334 q 0.3266,0 0.56,0.23334 0.2333,0.23333 0.2333,0.56 v 1.35333 q 0,0.32667 -0.2333,0.56 -0.2334,0.23333 -0.56,0.23333 h -13.9534 z m 2.4267,-8.02667 q 0,-0.32666 0.2333,-0.56 0.2334,-0.23333 0.56,-0.23333 h 9.5667 q 0.3267,0 0.56,0.23333 0.2333,0.23334 0.2333,0.56 v 1.35334 q 0,0.37333 -0.2333,0.60666 -0.2333,0.18667 -0.56,0.18667 h -9.5667 q -0.3266,0 -0.56,-0.18667 -0.2333,-0.23333 -0.2333,-0.60666 z"
         style="font-style:normal;font-variant:normal;font-weight:normal;font-stretch:normal;font-size:46.66666794px;line-height:0;font-family:'neo latina';-inkscape-font-specification:'neo latina';word-spacing:0px"
         id="path904" />
      <path
         d="m 1548.8293,356.33536 q 0.093,0.28 0.093,0.32667 0,0.42 -0.4667,0.42 h -2.6133 q -0.3734,0 -0.56,-0.37333 l -2.66,-5.55334 h -11.2 q -0.3267,0 -0.3267,-0.32666 0,-0.14 0.047,-0.23334 l 1.0266,-2.05333 q 0.1867,-0.46667 0.7,-0.46667 h 8.26 l -5.6933,-12.27333 -10.1733,20.90667 q -0.1867,0.37333 -0.56,0.37333 h -2.3334 q -0.4666,0 -0.4666,-0.42 0,-0.0467 0.093,-0.32667 l 11.06,-22.44666 q 0.1867,-0.37334 0.5133,-0.60667 0.3734,-0.28 0.7467,-0.28 h 2.1933 q 0.3734,0 0.7,0.28 0.3734,0.23333 0.56,0.60667 z"
         style="font-style:normal;font-variant:normal;font-weight:normal;font-stretch:normal;font-size:46.66666794px;line-height:0;font-family:'neo latina';-inkscape-font-specification:'neo latina';word-spacing:0px"
         id="path906" />
      <path
         d="m 1567.1365,337.29536 q 1.3067,0 2.38,0.46667 1.12,0.46667 1.9134,1.30667 0.7933,0.79333 1.26,1.86666 0.4666,1.07334 0.4666,2.33334 0,2.24 -1.3066,3.82666 -1.3067,1.54 -3.3134,2.00667 l 5.32,7.18667 q 0.14,0.23333 0.14,0.46666 0,0.32667 -0.3733,0.32667 h -2.5667 q -0.14,0 -0.3266,-0.0933 -0.14,-0.0933 -0.2334,-0.23334 l -5.5533,-7.46666 h -3.5467 q -0.3266,0 -0.56,-0.23334 -0.2333,-0.23333 -0.2333,-0.56 v -1.21333 q 0,-0.32667 0.2333,-0.56 0.2334,-0.23333 0.56,-0.23333 h 5.6 q 1.4,0 2.2867,-0.88667 0.8867,-0.88667 0.8867,-2.28667 0,-1.30666 -0.9334,-2.19333 -0.9333,-0.88667 -2.24,-0.88667 h -8.8666 v 16.05334 q 0,0.32666 -0.2334,0.56 -0.2333,0.23333 -0.56,0.23333 h -1.68 q -0.3266,0 -0.56,-0.23333 -0.2333,-0.23334 -0.2333,-0.56 v -18.2 q 0,-0.32667 0.2333,-0.56 0.2334,-0.23334 0.56,-0.23334 z"
         style="font-style:normal;font-variant:normal;font-weight:normal;font-stretch:normal;font-size:46.66666794px;line-height:0;font-family:'neo latina';-inkscape-font-specification:'neo latina';word-spacing:0px"
         id="path908" />
      <path
         d="m 1577.0751,338.0887 q 0,-0.32667 0.2333,-0.56 0.2334,-0.23334 0.56,-0.23334 h 18.5267 q 0.3733,0 0.56,0.23334 0.2333,0.23333 0.2333,0.56 v 1.35333 q 0,0.32667 -0.2333,0.56 -0.1867,0.23333 -0.56,0.23333 h -18.5267 q -0.3266,0 -0.56,-0.23333 -0.2333,-0.23333 -0.2333,-0.56 z m 8.3533,5.27333 q 0,-0.79333 0.7934,-0.79333 h 1.7733 q 0.7933,0 0.7933,0.79333 v 12.92667 q 0,0.32666 -0.2333,0.56 -0.1867,0.23333 -0.56,0.23333 h -1.7733 q -0.3734,0 -0.6067,-0.23333 -0.1867,-0.23334 -0.1867,-0.56 z"
         style="font-style:normal;font-variant:normal;font-weight:normal;font-stretch:normal;font-size:46.66666794px;line-height:0;font-family:'neo latina';-inkscape-font-specification:'neo latina';word-spacing:0px"
         id="path910" />
      <path
         d="m 1602.1657,338.0887 q 0,-0.32667 0.2333,-0.56 0.2333,-0.23334 0.56,-0.23334 h 1.7733 q 0.3267,0 0.56,0.23334 0.2334,0.23333 0.2334,0.56 v 18.2 q 0,0.32666 -0.2334,0.56 -0.2333,0.23333 -0.56,0.23333 h -1.7733 q -0.3267,0 -0.56,-0.23333 -0.2333,-0.23334 -0.2333,-0.56 z"
         style="font-style:normal;font-variant:normal;font-weight:normal;font-stretch:normal;font-size:46.66666794px;line-height:0;font-family:'neo latina';-inkscape-font-specification:'neo latina';word-spacing:0px"
         id="path912" />
      <path
         d="m 1613.6523,338.0887 q 0,-0.32667 0.2333,-0.56 0.2333,-0.23334 0.56,-0.23334 h 16.1 q 0.3733,0 0.56,0.23334 0.2333,0.23333 0.2333,0.56 v 1.35333 q 0,0.32667 -0.2333,0.56 -0.1867,0.23333 -0.56,0.23333 h -13.58 v 16.05334 q 0,0.32666 -0.2333,0.56 -0.2334,0.23333 -0.56,0.23333 h -1.7267 q -0.3267,0 -0.56,-0.23333 -0.2333,-0.23334 -0.2333,-0.56 z m 5.74,9.05333 q 0,-0.32667 0.1866,-0.56 0.2334,-0.23333 0.6067,-0.23333 h 9.0067 q 0.3266,0 0.56,0.23333 0.2333,0.23333 0.2333,0.56 v 1.30667 q 0,0.32666 -0.2333,0.56 -0.2334,0.23333 -0.56,0.23333 h -9.0067 q -0.3733,0 -0.6067,-0.23333 -0.1866,-0.23334 -0.1866,-0.56 z"
         style="font-style:normal;font-variant:normal;font-weight:normal;font-stretch:normal;font-size:46.66666794px;line-height:0;font-family:'neo latina';-inkscape-font-specification:'neo latina';word-spacing:0px"
         id="path914" />
      <path
         d="m 1636.3454,338.0887 q 0,-0.32667 0.2333,-0.56 0.2333,-0.23334 0.56,-0.23334 h 1.7733 q 0.3267,0 0.56,0.23334 0.2334,0.23333 0.2334,0.56 v 18.2 q 0,0.32666 -0.2334,0.56 -0.2333,0.23333 -0.56,0.23333 h -1.7733 q -0.3267,0 -0.56,-0.23333 -0.2333,-0.23334 -0.2333,-0.56 z"
         style="font-style:normal;font-variant:normal;font-weight:normal;font-stretch:normal;font-size:46.66666794px;line-height:0;font-family:'neo latina';-inkscape-font-specification:'neo latina';word-spacing:0px"
         id="path916" />
      <path
         d="m 1647.4586,339.67536 q 0,-0.79333 0.6533,-1.58666 0.6534,-0.79334 1.7734,-0.79334 h 14.84 q 0.3733,0 0.56,0.23334 0.2333,0.23333 0.2333,0.56 v 1.35333 q 0,0.32667 -0.2333,0.56 -0.1867,0.23333 -0.56,0.23333 h -13.9067 v 13.90667 h 14.4667 q 0.3733,0 0.56,0.23333 0.2333,0.23334 0.2333,0.56 v 1.35334 q 0,0.32666 -0.2333,0.56 -0.1867,0.23333 -0.56,0.23333 h -15.4467 q -1.0733,0 -1.7267,-0.7 -0.6533,-0.74667 -0.6533,-1.68 z"
         style="font-style:normal;font-variant:normal;font-weight:normal;font-stretch:normal;font-size:46.66666794px;line-height:0;font-family:'neo latina';-inkscape-font-specification:'neo latina';word-spacing:0px"
         id="path918" />
      <path
         d="m 1672.4391,338.0887 q 0,-0.32667 0.2333,-0.56 0.2334,-0.23334 0.56,-0.23334 h 1.7734 q 0.3266,0 0.56,0.23334 0.2333,0.23333 0.2333,0.56 v 18.2 q 0,0.32666 -0.2333,0.56 -0.2334,0.23333 -0.56,0.23333 h -1.7734 q -0.3266,0 -0.56,-0.23333 -0.2333,-0.23334 -0.2333,-0.56 z"
         style="font-style:normal;font-variant:normal;font-weight:normal;font-stretch:normal;font-size:46.66666794px;line-height:0;font-family:'neo latina';-inkscape-font-specification:'neo latina';word-spacing:0px"
         id="path920" />
      <path
         d="m 1690.9257,338.0887 q 0.14,-0.32667 0.4667,-0.56 0.3733,-0.23334 0.7,-0.23334 h 1.68 q 0.3266,0 0.6533,0.23334 0.3733,0.23333 0.56,0.56 l 9.66,18.2 q 0.093,0.28 0.093,0.37333 0,0.42 -0.4666,0.42 h -2.1467 q -0.5133,0 -0.84,-0.56 l -2.1933,-4.10667 h -9.1 q -0.4667,0 -0.4667,-0.42 0,-0.0933 0.093,-0.37333 l 0.7467,-1.44667 q 0.3267,-0.56 0.84,-0.56 h 6.3933 l -4.7133,-9.19333 -8.2133,16.1 q -0.093,0.23333 -0.3734,0.42 -0.2333,0.14 -0.4666,0.14 h -2.0067 q -0.4667,0 -0.4667,-0.42 0,-0.0933 0.093,-0.37333 z"
         style="font-style:normal;font-variant:normal;font-weight:normal;font-stretch:normal;font-size:46.66666794px;line-height:0;font-family:'neo latina';-inkscape-font-specification:'neo latina';word-spacing:0px"
         id="path922" />
      <path
         d="m 1710.358,338.0887 q 0,-0.32667 0.2333,-0.56 0.2334,-0.23334 0.56,-0.23334 h 1.68 q 0.3267,0 0.56,0.23334 0.2334,0.23333 0.2334,0.56 v 16.05333 h 13.1133 q 0.3267,0 0.56,0.23333 0.2333,0.23334 0.2333,0.56 v 1.35334 q 0,0.32666 -0.2333,0.56 -0.2333,0.23333 -0.56,0.23333 h -15.5867 q -0.3266,0 -0.56,-0.23333 -0.2333,-0.23334 -0.2333,-0.56 z"
         style="font-style:normal;font-variant:normal;font-weight:normal;font-stretch:normal;font-size:46.66666794px;line-height:0;font-family:'neo latina';-inkscape-font-specification:'neo latina';word-spacing:0px"
         id="path924" />
      <path
         d="m 1750.0414,333.84203 q 0,-0.37333 0.2333,-0.60667 0.28,-0.23333 0.6067,-0.23333 h 1.96 q 0.3267,0 0.56,0.23333 0.28,0.23334 0.28,0.60667 v 22.4 q 0,0.32667 -0.28,0.60667 -0.2333,0.23333 -0.56,0.23333 h -1.96 q -0.3267,0 -0.6067,-0.23333 -0.2333,-0.28 -0.2333,-0.60667 z"
         style="font-style:normal;font-variant:normal;font-weight:normal;font-stretch:normal;font-size:46.66666794px;line-height:0;font-family:'neo latina';-inkscape-font-specification:'neo latina';word-spacing:0px"
         id="path926" />
      <path
         d="m 1763.4049,342.33536 q 0,-0.23333 0.14,-0.23333 0.093,0 0.42,0.23333 l 2.0533,2.05334 q 0.1867,0.23333 0.3267,0.51333 0.14,0.23333 0.14,0.42 v 10.96667 q 0,0.32666 -0.2333,0.56 -0.1867,0.23333 -0.56,0.23333 h -1.4934 q -0.3266,0 -0.56,-0.23333 -0.2333,-0.23334 -0.2333,-0.56 z m 0,-4.24666 q 0,-0.37334 0.2333,-0.56 0.2334,-0.23334 0.56,-0.23334 h 0.9334 q 0.3266,0 0.7466,0.23334 0.4667,0.18666 0.84,0.56 l 14.1867,14.42 v -14.42 q 0,-0.32667 0.1867,-0.56 0.2333,-0.23334 0.6066,-0.23334 h 1.4934 q 0.3266,0 0.56,0.23334 0.2333,0.23333 0.2333,0.56 v 18.2 q 0,0.32666 -0.2333,0.56 -0.2334,0.23333 -0.56,0.23333 h -1.54 q -0.42,0 -0.6067,-0.28 l -17.64,-17.92 z"
         style="font-style:normal;font-variant:normal;font-weight:normal;font-stretch:normal;font-size:46.66666794px;line-height:0;font-family:'neo latina';-inkscape-font-specification:'neo latina';word-spacing:0px"
         id="path928" />
      <path
         d="m 1789.0803,338.0887 q 0,-0.32667 0.2333,-0.56 0.2333,-0.23334 0.56,-0.23334 h 18.5267 q 0.3733,0 0.56,0.23334 0.2333,0.23333 0.2333,0.56 v 1.35333 q 0,0.32667 -0.2333,0.56 -0.1867,0.23333 -0.56,0.23333 h -18.5267 q -0.3267,0 -0.56,-0.23333 -0.2333,-0.23333 -0.2333,-0.56 z m 8.3533,5.27333 q 0,-0.79333 0.7933,-0.79333 h 1.7734 q 0.7933,0 0.7933,0.79333 v 12.92667 q 0,0.32666 -0.2333,0.56 -0.1867,0.23333 -0.56,0.23333 h -1.7734 q -0.3733,0 -0.6066,-0.23333 -0.1867,-0.23334 -0.1867,-0.56 z"
         style="font-style:normal;font-variant:normal;font-weight:normal;font-stretch:normal;font-size:46.66666794px;line-height:0;font-family:'neo latina';-inkscape-font-specification:'neo latina';word-spacing:0px"
         id="path930" />
      <path
         d="m 1817.4376,354.14203 h 14.14 q 0.3267,0 0.56,0.23333 0.2333,0.23334 0.2333,0.56 v 1.35334 q 0,0.32666 -0.2333,0.56 -0.2333,0.23333 -0.56,0.23333 h -16.52 q -0.3267,0 -0.56,-0.23333 -0.2333,-0.23334 -0.2333,-0.56 v -18.2 q 0,-0.32667 0.2333,-0.56 0.2333,-0.23334 0.56,-0.23334 h 16.3333 q 0.3267,0 0.56,0.23334 0.2334,0.23333 0.2334,0.56 v 1.35333 q 0,0.32667 -0.2334,0.56 -0.2333,0.23333 -0.56,0.23333 h -13.9533 z m 2.4267,-8.02667 q 0,-0.32666 0.2333,-0.56 0.2333,-0.23333 0.56,-0.23333 h 9.5667 q 0.3266,0 0.56,0.23333 0.2333,0.23334 0.2333,0.56 v 1.35334 q 0,0.37333 -0.2333,0.60666 -0.2334,0.18667 -0.56,0.18667 h -9.5667 q -0.3267,0 -0.56,-0.18667 -0.2333,-0.23333 -0.2333,-0.60666 z"
         style="font-style:normal;font-variant:normal;font-weight:normal;font-stretch:normal;font-size:46.66666794px;line-height:0;font-family:'neo latina';-inkscape-font-specification:'neo latina';word-spacing:0px"
         id="path932" />
      <path
         d="m 1838.6913,338.0887 q 0,-0.32667 0.2334,-0.56 0.2333,-0.23334 0.56,-0.23334 h 1.68 q 0.3266,0 0.56,0.23334 0.2333,0.23333 0.2333,0.56 v 16.05333 h 13.1133 q 0.3267,0 0.56,0.23333 0.2334,0.23334 0.2334,0.56 v 1.35334 q 0,0.32666 -0.2334,0.56 -0.2333,0.23333 -0.56,0.23333 h -15.5866 q -0.3267,0 -0.56,-0.23333 -0.2334,-0.23334 -0.2334,-0.56 z"
         style="font-style:normal;font-variant:normal;font-weight:normal;font-stretch:normal;font-size:46.66666794px;line-height:0;font-family:'neo latina';-inkscape-font-specification:'neo latina';word-spacing:0px"
         id="path934" />
      <path
         d="m 1861.1132,338.0887 q 0,-0.32667 0.2333,-0.56 0.2334,-0.23334 0.56,-0.23334 h 1.68 q 0.3267,0 0.56,0.23334 0.2334,0.23333 0.2334,0.56 v 16.05333 h 13.1133 q 0.3267,0 0.56,0.23333 0.2333,0.23334 0.2333,0.56 v 1.35334 q 0,0.32666 -0.2333,0.56 -0.2333,0.23333 -0.56,0.23333 h -15.5867 q -0.3266,0 -0.56,-0.23333 -0.2333,-0.23334 -0.2333,-0.56 z"
         style="font-style:normal;font-variant:normal;font-weight:normal;font-stretch:normal;font-size:46.66666794px;line-height:0;font-family:'neo latina';-inkscape-font-specification:'neo latina';word-spacing:0px"
         id="path936" />
      <path
         d="m 1883.4417,338.0887 q 0,-0.32667 0.2334,-0.56 0.2333,-0.23334 0.56,-0.23334 h 1.7733 q 0.3267,0 0.56,0.23334 0.2333,0.23333 0.2333,0.56 v 18.2 q 0,0.32666 -0.2333,0.56 -0.2333,0.23333 -0.56,0.23333 h -1.7733 q -0.3267,0 -0.56,-0.23333 -0.2334,-0.23334 -0.2334,-0.56 z"
         style="font-style:normal;font-variant:normal;font-weight:normal;font-stretch:normal;font-size:46.66666794px;line-height:0;font-family:'neo latina';-inkscape-font-specification:'neo latina';word-spacing:0px"
         id="path938" />
      <path
         d="m 1914.2017,345.7887 q 0.3266,0 0.56,0.23333 0.2333,0.23333 0.2333,0.56 v 8.12 q 0,0.98 -0.7,1.68 -0.6533,0.7 -1.6333,0.7 h -11.7134 q -0.3266,0 -0.56,-0.23333 -0.2333,-0.23334 -0.2333,-0.56 v -1.35334 q 0,-0.32666 0.2333,-0.56 0.2334,-0.23333 0.56,-0.23333 h 10.7334 v -5.64667 h -6.2534 q -0.3733,0 -0.6066,-0.23333 -0.1867,-0.23333 -0.1867,-0.56 v -1.12 q 0,-0.32667 0.1867,-0.56 0.2333,-0.23333 0.6066,-0.23333 z m -1.5867,-8.49334 q 0.98,0 1.68,0.7 0.7,0.7 0.7,1.68 v 2.19334 q 0,0.37333 -0.2333,0.60666 -0.2334,0.18667 -0.56,0.18667 h -1.7734 q -0.7933,0 -0.7933,-0.79333 v -1.63334 h -13.9067 v 16.05334 q 0,0.32666 -0.1866,0.56 -0.14,0.23333 -0.4667,0.23333 h -1.7733 q -0.3267,0 -0.56,-0.23333 -0.2334,-0.23334 -0.2334,-0.56 v -18.2 q 0,-0.32667 0.2334,-0.56 0.2333,-0.23334 0.56,-0.23334 z"
         style="font-style:normal;font-variant:normal;font-weight:normal;font-stretch:normal;font-size:46.66666794px;line-height:0;font-family:'neo latina';-inkscape-font-specification:'neo latina';word-spacing:0px"
         id="path940" />
      <path
         d="m 1925.7188,354.14203 h 14.14 q 0.3267,0 0.56,0.23333 0.2334,0.23334 0.2334,0.56 v 1.35334 q 0,0.32666 -0.2334,0.56 -0.2333,0.23333 -0.56,0.23333 h -16.52 q -0.3266,0 -0.56,-0.23333 -0.2333,-0.23334 -0.2333,-0.56 v -18.2 q 0,-0.32667 0.2333,-0.56 0.2334,-0.23334 0.56,-0.23334 h 16.3334 q 0.3266,0 0.56,0.23334 0.2333,0.23333 0.2333,0.56 v 1.35333 q 0,0.32667 -0.2333,0.56 -0.2334,0.23333 -0.56,0.23333 h -13.9534 z m 2.4267,-8.02667 q 0,-0.32666 0.2333,-0.56 0.2334,-0.23333 0.56,-0.23333 h 9.5667 q 0.3267,0 0.56,0.23333 0.2333,0.23334 0.2333,0.56 v 1.35334 q 0,0.37333 -0.2333,0.60666 -0.2333,0.18667 -0.56,0.18667 h -9.5667 q -0.3266,0 -0.56,-0.18667 -0.2333,-0.23333 -0.2333,-0.60666 z"
         style="font-style:normal;font-variant:normal;font-weight:normal;font-stretch:normal;font-size:46.66666794px;line-height:0;font-family:'neo latina';-inkscape-font-specification:'neo latina';word-spacing:0px"
         id="path942" />
      <path
         d="m 1946.9726,342.33536 q 0,-0.23333 0.14,-0.23333 0.093,0 0.42,0.23333 l 2.0534,2.05334 q 0.1866,0.23333 0.3266,0.51333 0.14,0.23333 0.14,0.42 v 10.96667 q 0,0.32666 -0.2333,0.56 -0.1867,0.23333 -0.56,0.23333 h -1.4933 q -0.3267,0 -0.56,-0.23333 -0.2334,-0.23334 -0.2334,-0.56 z m 0,-4.24666 q 0,-0.37334 0.2334,-0.56 0.2333,-0.23334 0.56,-0.23334 h 0.9333 q 0.3267,0 0.7467,0.23334 0.4666,0.18666 0.84,0.56 l 14.1866,14.42 v -14.42 q 0,-0.32667 0.1867,-0.56 0.2333,-0.23334 0.6067,-0.23334 h 1.4933 q 0.3267,0 0.56,0.23334 0.2333,0.23333 0.2333,0.56 v 18.2 q 0,0.32666 -0.2333,0.56 -0.2333,0.23333 -0.56,0.23333 h -1.54 q -0.42,0 -0.6067,-0.28 l -17.64,-17.92 z"
         style="font-style:normal;font-variant:normal;font-weight:normal;font-stretch:normal;font-size:46.66666794px;line-height:0;font-family:'neo latina';-inkscape-font-specification:'neo latina';word-spacing:0px"
         id="path944" />
      <path
         d="m 1975.4013,339.67536 q 0,-0.79333 0.6533,-1.58666 0.6534,-0.79334 1.7734,-0.79334 h 14.84 q 0.3733,0 0.56,0.23334 0.2333,0.23333 0.2333,0.56 v 1.35333 q 0,0.32667 -0.2333,0.56 -0.1867,0.23333 -0.56,0.23333 h -13.9067 v 13.90667 h 14.4667 q 0.3733,0 0.56,0.23333 0.2333,0.23334 0.2333,0.56 v 1.35334 q 0,0.32666 -0.2333,0.56 -0.1867,0.23333 -0.56,0.23333 h -15.4467 q -1.0733,0 -1.7267,-0.7 -0.6533,-0.74667 -0.6533,-1.68 z"
         style="font-style:normal;font-variant:normal;font-weight:normal;font-stretch:normal;font-size:46.66666794px;line-height:0;font-family:'neo latina';-inkscape-font-specification:'neo latina';word-spacing:0px"
         id="path946" />
      <path
         d="m 2003.6485,354.14203 h 14.14 q 0.3267,0 0.56,0.23333 0.2334,0.23334 0.2334,0.56 v 1.35334 q 0,0.32666 -0.2334,0.56 -0.2333,0.23333 -0.56,0.23333 h -16.52 q -0.3266,0 -0.56,-0.23333 -0.2333,-0.23334 -0.2333,-0.56 v -18.2 q 0,-0.32667 0.2333,-0.56 0.2334,-0.23334 0.56,-0.23334 h 16.3334 q 0.3266,0 0.56,0.23334 0.2333,0.23333 0.2333,0.56 v 1.35333 q 0,0.32667 -0.2333,0.56 -0.2334,0.23333 -0.56,0.23333 h -13.9534 z m 2.4267,-8.02667 q 0,-0.32666 0.2333,-0.56 0.2334,-0.23333 0.56,-0.23333 h 9.5667 q 0.3267,0 0.56,0.23333 0.2333,0.23334 0.2333,0.56 v 1.35334 q 0,0.37333 -0.2333,0.60666 -0.2333,0.18667 -0.56,0.18667 h -9.5667 q -0.3266,0 -0.56,-0.18667 -0.2333,-0.23333 -0.2333,-0.60666 z"
         style="font-style:normal;font-variant:normal;font-weight:normal;font-stretch:normal;font-size:46.66666794px;line-height:0;font-family:'neo latina';-inkscape-font-specification:'neo latina';word-spacing:0px"
         id="path948" />
      <path
         d="m 2040.6705,338.0887 q 0,-0.32667 0.2333,-0.56 0.2334,-0.23334 0.56,-0.23334 h 16.1 q 0.3734,0 0.56,0.23334 0.2334,0.23333 0.2334,0.56 v 1.35333 q 0,0.32667 -0.2334,0.56 -0.1866,0.23333 -0.56,0.23333 h -13.58 v 16.05334 q 0,0.32666 -0.2333,0.56 -0.2333,0.23333 -0.56,0.23333 h -1.7267 q -0.3266,0 -0.56,-0.23333 -0.2333,-0.23334 -0.2333,-0.56 z m 5.74,9.05333 q 0,-0.32667 0.1867,-0.56 0.2333,-0.23333 0.6066,-0.23333 h 9.0067 q 0.3267,0 0.56,0.23333 0.2333,0.23333 0.2333,0.56 v 1.30667 q 0,0.32666 -0.2333,0.56 -0.2333,0.23333 -0.56,0.23333 h -9.0067 q -0.3733,0 -0.6066,-0.23333 -0.1867,-0.23334 -0.1867,-0.56 z"
         style="font-style:normal;font-variant:normal;font-weight:normal;font-stretch:normal;font-size:46.66666794px;line-height:0;font-family:'neo latina';-inkscape-font-specification:'neo latina';word-spacing:0px"
         id="path950" />
      <path
         d="m 2063.0837,340.23536 q 0,-0.51333 0.2333,-1.02666 0.28,-0.56 0.7,-0.98 0.42,-0.42 0.9333,-0.65334 0.56,-0.28 1.0734,-0.28 h 15.1666 q 0.56,0 1.0734,0.28 0.5133,0.23334 0.9333,0.65334 0.42,0.42 0.6533,0.98 0.28,0.51333 0.28,1.02666 v 13.90667 q 0,0.51333 -0.28,1.07333 -0.2333,0.51334 -0.6533,0.93334 -0.42,0.42 -0.9333,0.7 -0.5134,0.23333 -1.0734,0.23333 h -15.1666 q -0.5134,0 -1.0734,-0.23333 -0.5133,-0.28 -0.9333,-0.7 -0.42,-0.42 -0.7,-0.93334 -0.2333,-0.56 -0.2333,-1.07333 z m 3.22,13.90667 h 14.6066 v -13.90667 h -14.6066 z"
         style="font-style:normal;font-variant:normal;font-weight:normal;font-stretch:normal;font-size:46.66666794px;line-height:0;font-family:'neo latina';-inkscape-font-specification:'neo latina';word-spacing:0px"
         id="path952" />
      <path
         d="m 2104.2589,337.29536 q 1.3067,0 2.38,0.46667 1.12,0.46667 1.9133,1.30667 0.7934,0.79333 1.26,1.86666 0.4667,1.07334 0.4667,2.33334 0,2.24 -1.3067,3.82666 -1.3066,1.54 -3.3133,2.00667 l 5.32,7.18667 q 0.14,0.23333 0.14,0.46666 0,0.32667 -0.3733,0.32667 h -2.5667 q -0.14,0 -0.3267,-0.0933 -0.14,-0.0933 -0.2333,-0.23334 l -5.5533,-7.46666 h -3.5467 q -0.3267,0 -0.56,-0.23334 -0.2333,-0.23333 -0.2333,-0.56 v -1.21333 q 0,-0.32667 0.2333,-0.56 0.2333,-0.23333 0.56,-0.23333 h 5.6 q 1.4,0 2.2867,-0.88667 0.8866,-0.88667 0.8866,-2.28667 0,-1.30666 -0.9333,-2.19333 -0.9333,-0.88667 -2.24,-0.88667 h -8.8667 v 16.05334 q 0,0.32666 -0.2333,0.56 -0.2333,0.23333 -0.56,0.23333 h -1.68 q -0.3267,0 -0.56,-0.23333 -0.2333,-0.23334 -0.2333,-0.56 v -18.2 q 0,-0.32667 0.2333,-0.56 0.2333,-0.23334 0.56,-0.23334 z"
         style="font-style:normal;font-variant:normal;font-weight:normal;font-stretch:normal;font-size:46.66666794px;line-height:0;font-family:'neo latina';-inkscape-font-specification:'neo latina';word-spacing:0px"
         id="path954" />
      <path
         d="m 925.57849,404.93536 q 0,-0.32666 0.23333,-0.56 0.23334,-0.23333 0.56,-0.23333 h 9.47334 q 0.56,0 0.93333,-0.37333 0.42,-0.42 0.42,-0.98 v -11.2 q 0,-0.56 -0.42,-0.93334 -0.37333,-0.42 -0.93333,-0.42 h -12.69334 v 16.05334 q 0,0.32666 -0.23333,0.56 -0.23333,0.23333 -0.56,0.23333 h -1.77333 q -0.32667,0 -0.56,-0.23333 -0.23334,-0.23334 -0.23334,-0.56 v -18.2 q 0,-0.32667 0.23334,-0.56 0.23333,-0.23334 0.56,-0.23334 h 15.72666 q 1.77334,0 2.98667,1.21334 1.21333,1.21333 1.21333,2.98666 v 11.38667 q 0,1.77333 -1.21333,2.98667 -1.21333,1.21333 -2.98667,1.21333 h -9.94 q -0.32666,0 -0.56,-0.23333 -0.23333,-0.23334 -0.23333,-0.56 z"
         style="font-style:normal;font-variant:normal;font-weight:normal;font-stretch:normal;font-size:46.66666794px;line-height:0;font-family:'neo latina';-inkscape-font-specification:'neo latina';word-spacing:0px"
         id="path956" />
      <path
         d="m 951.82557,404.14203 h 14.14 q 0.32667,0 0.56,0.23333 0.23334,0.23334 0.23334,0.56 v 1.35334 q 0,0.32666 -0.23334,0.56 -0.23333,0.23333 -0.56,0.23333 h -16.52 q -0.32666,0 -0.56,-0.23333 -0.23333,-0.23334 -0.23333,-0.56 v -18.2 q 0,-0.32667 0.23333,-0.56 0.23334,-0.23334 0.56,-0.23334 h 16.33334 q 0.32666,0 0.56,0.23334 0.23333,0.23333 0.23333,0.56 v 1.35333 q 0,0.32667 -0.23333,0.56 -0.23334,0.23333 -0.56,0.23333 h -13.95334 z m 2.42667,-8.02667 q 0,-0.32666 0.23333,-0.56 0.23334,-0.23333 0.56,-0.23333 h 9.56667 q 0.32667,0 0.56,0.23333 0.23333,0.23334 0.23333,0.56 v 1.35334 q 0,0.37333 -0.23333,0.60666 -0.23333,0.18667 -0.56,0.18667 h -9.56667 q -0.32666,0 -0.56,-0.18667 -0.23333,-0.23333 -0.23333,-0.60666 z"
         style="font-style:normal;font-variant:normal;font-weight:normal;font-stretch:normal;font-size:46.66666794px;line-height:0;font-family:'neo latina';-inkscape-font-specification:'neo latina';word-spacing:0px"
         id="path958" />
      <path
         d="m 972.70599,389.67536 q 0,-0.79333 0.65333,-1.58666 0.65334,-0.79334 1.77334,-0.79334 h 14.84 q 0.37333,0 0.56,0.23334 0.23333,0.23333 0.23333,0.56 v 1.35333 q 0,0.32667 -0.23333,0.56 -0.18667,0.23333 -0.56,0.23333 h -13.90667 v 13.90667 h 14.46667 q 0.37333,0 0.56,0.23333 0.23333,0.23334 0.23333,0.56 v 1.35334 q 0,0.32666 -0.23333,0.56 -0.18667,0.23333 -0.56,0.23333 h -15.44667 q -1.07333,0 -1.72667,-0.7 -0.65333,-0.74667 -0.65333,-1.68 z"
         style="font-style:normal;font-variant:normal;font-weight:normal;font-stretch:normal;font-size:46.66666794px;line-height:0;font-family:'neo latina';-inkscape-font-specification:'neo latina';word-spacing:0px"
         id="path960" />
      <path
         d="m 1000.9532,404.14203 h 14.14 q 0.3266,0 0.56,0.23333 0.2333,0.23334 0.2333,0.56 v 1.35334 q 0,0.32666 -0.2333,0.56 -0.2334,0.23333 -0.56,0.23333 h -16.52002 q -0.32667,0 -0.56,-0.23333 -0.23333,-0.23334 -0.23333,-0.56 v -18.2 q 0,-0.32667 0.23333,-0.56 0.23333,-0.23334 0.56,-0.23334 h 16.33332 q 0.3267,0 0.56,0.23334 0.2333,0.23333 0.2333,0.56 v 1.35333 q 0,0.32667 -0.2333,0.56 -0.2333,0.23333 -0.56,0.23333 h -13.9533 z m 2.4266,-8.02667 q 0,-0.32666 0.2334,-0.56 0.2333,-0.23333 0.56,-0.23333 h 9.5666 q 0.3267,0 0.56,0.23333 0.2334,0.23334 0.2334,0.56 v 1.35334 q 0,0.37333 -0.2334,0.60666 -0.2333,0.18667 -0.56,0.18667 h -9.5666 q -0.3267,0 -0.56,-0.18667 -0.2334,-0.23333 -0.2334,-0.60666 z"
         style="font-style:normal;font-variant:normal;font-weight:normal;font-stretch:normal;font-size:46.66666794px;line-height:0;font-family:'neo latina';-inkscape-font-specification:'neo latina';word-spacing:0px"
         id="path962" />
      <path
         d="m 1022.2069,392.33536 q 0,-0.23333 0.14,-0.23333 0.093,0 0.42,0.23333 l 2.0534,2.05334 q 0.1866,0.23333 0.3266,0.51333 0.14,0.23333 0.14,0.42 v 10.96667 q 0,0.32666 -0.2333,0.56 -0.1867,0.23333 -0.56,0.23333 h -1.4933 q -0.3267,0 -0.56,-0.23333 -0.2334,-0.23334 -0.2334,-0.56 z m 0,-4.24666 q 0,-0.37334 0.2334,-0.56 0.2333,-0.23334 0.56,-0.23334 h 0.9333 q 0.3267,0 0.7467,0.23334 0.4666,0.18666 0.84,0.56 l 14.1866,14.42 v -14.42 q 0,-0.32667 0.1867,-0.56 0.2333,-0.23334 0.6067,-0.23334 h 1.4933 q 0.3267,0 0.56,0.23334 0.2333,0.23333 0.2333,0.56 v 18.2 q 0,0.32666 -0.2333,0.56 -0.2333,0.23333 -0.56,0.23333 h -1.54 q -0.42,0 -0.6067,-0.28 l -17.64,-17.92 z"
         style="font-style:normal;font-variant:normal;font-weight:normal;font-stretch:normal;font-size:46.66666794px;line-height:0;font-family:'neo latina';-inkscape-font-specification:'neo latina';word-spacing:0px"
         id="path964" />
      <path
         d="m 1047.8823,388.0887 q 0,-0.32667 0.2334,-0.56 0.2333,-0.23334 0.56,-0.23334 h 18.5266 q 0.3734,0 0.56,0.23334 0.2334,0.23333 0.2334,0.56 v 1.35333 q 0,0.32667 -0.2334,0.56 -0.1866,0.23333 -0.56,0.23333 h -18.5266 q -0.3267,0 -0.56,-0.23333 -0.2334,-0.23333 -0.2334,-0.56 z m 8.3534,5.27333 q 0,-0.79333 0.7933,-0.79333 h 1.7733 q 0.7934,0 0.7934,0.79333 v 12.92667 q 0,0.32666 -0.2334,0.56 -0.1866,0.23333 -0.56,0.23333 h -1.7733 q -0.3733,0 -0.6067,-0.23333 -0.1866,-0.23334 -0.1866,-0.56 z"
         style="font-style:normal;font-variant:normal;font-weight:normal;font-stretch:normal;font-size:46.66666794px;line-height:0;font-family:'neo latina';-inkscape-font-specification:'neo latina';word-spacing:0px"
         id="path966" />
      <path
         d="m 1085.3396,387.29536 q 1.3067,0 2.38,0.46667 1.12,0.46667 1.9134,1.30667 0.7933,0.79333 1.26,1.86666 0.4666,1.07334 0.4666,2.33334 0,2.24 -1.3066,3.82666 -1.3067,1.54 -3.3134,2.00667 l 5.32,7.18667 q 0.14,0.23333 0.14,0.46666 0,0.32667 -0.3733,0.32667 h -2.5667 q -0.14,0 -0.3266,-0.0933 -0.14,-0.0933 -0.2334,-0.23334 l -5.5533,-7.46666 h -3.5467 q -0.3266,0 -0.56,-0.23334 -0.2333,-0.23333 -0.2333,-0.56 v -1.21333 q 0,-0.32667 0.2333,-0.56 0.2334,-0.23333 0.56,-0.23333 h 5.6 q 1.4,0 2.2867,-0.88667 0.8867,-0.88667 0.8867,-2.28667 0,-1.30666 -0.9334,-2.19333 -0.9333,-0.88667 -2.24,-0.88667 h -8.8666 v 16.05334 q 0,0.32666 -0.2334,0.56 -0.2333,0.23333 -0.56,0.23333 h -1.68 q -0.3266,0 -0.56,-0.23333 -0.2333,-0.23334 -0.2333,-0.56 v -18.2 q 0,-0.32667 0.2333,-0.56 0.2334,-0.23334 0.56,-0.23334 z"
         style="font-style:normal;font-variant:normal;font-weight:normal;font-stretch:normal;font-size:46.66666794px;line-height:0;font-family:'neo latina';-inkscape-font-specification:'neo latina';word-spacing:0px"
         id="path968" />
      <path
         d="m 1105.4049,388.0887 q 0.14,-0.32667 0.4666,-0.56 0.3734,-0.23334 0.7,-0.23334 h 1.68 q 0.3267,0 0.6534,0.23334 0.3733,0.23333 0.56,0.56 l 9.66,18.2 q 0.093,0.28 0.093,0.37333 0,0.42 -0.4667,0.42 h -2.1466 q -0.5134,0 -0.84,-0.56 l -2.1934,-4.10667 h -9.1 q -0.4666,0 -0.4666,-0.42 0,-0.0933 0.093,-0.37333 l 0.7467,-1.44667 q 0.3266,-0.56 0.84,-0.56 h 6.3933 l -4.7133,-9.19333 -8.2134,16.1 q -0.093,0.23333 -0.3733,0.42 -0.2333,0.14 -0.4667,0.14 h -2.0066 q -0.4667,0 -0.4667,-0.42 0,-0.0933 0.093,-0.37333 z"
         style="font-style:normal;font-variant:normal;font-weight:normal;font-stretch:normal;font-size:46.66666794px;line-height:0;font-family:'neo latina';-inkscape-font-specification:'neo latina';word-spacing:0px"
         id="path970" />
      <path
         d="m 1124.8371,388.0887 q 0,-0.32667 0.2334,-0.56 0.2333,-0.23334 0.56,-0.23334 h 1.68 q 0.3266,0 0.56,0.23334 0.2333,0.23333 0.2333,0.56 v 16.05333 h 13.1133 q 0.3267,0 0.56,0.23333 0.2334,0.23334 0.2334,0.56 v 1.35334 q 0,0.32666 -0.2334,0.56 -0.2333,0.23333 -0.56,0.23333 h -15.5866 q -0.3267,0 -0.56,-0.23333 -0.2334,-0.23334 -0.2334,-0.56 z"
         style="font-style:normal;font-variant:normal;font-weight:normal;font-stretch:normal;font-size:46.66666794px;line-height:0;font-family:'neo latina';-inkscape-font-specification:'neo latina';word-spacing:0px"
         id="path972" />
      <path
         d="m 1147.1657,388.0887 q 0,-0.32667 0.2333,-0.56 0.2333,-0.23334 0.56,-0.23334 h 1.7733 q 0.3267,0 0.56,0.23334 0.2334,0.23333 0.2334,0.56 v 18.2 q 0,0.32666 -0.2334,0.56 -0.2333,0.23333 -0.56,0.23333 h -1.7733 q -0.3267,0 -0.56,-0.23333 -0.2333,-0.23334 -0.2333,-0.56 z"
         style="font-style:normal;font-variant:normal;font-weight:normal;font-stretch:normal;font-size:46.66666794px;line-height:0;font-family:'neo latina';-inkscape-font-specification:'neo latina';word-spacing:0px"
         id="path974" />
      <path
         d="m 1158.7922,388.0887 q 0,-0.37334 0.2334,-0.56 0.2333,-0.23334 0.56,-0.23334 h 16.3333 q 0.4667,0 0.4667,0.32667 0,1.07333 -0.7934,1.86667 -0.7933,0.74666 -1.9133,0.74666 h -14.0933 q -0.3267,0 -0.56,-0.23333 -0.2334,-0.23333 -0.2334,-0.56 z m -1.2133,17.87333 q 0,-0.37333 0.14,-0.7 0.1867,-0.32667 0.42,-0.7 l 10.5933,-11.9 q 0.1867,-0.18667 0.42,-0.32667 0.2334,-0.14 0.4667,-0.14 h 3.0333 q 0.28,0 0.28,0.23334 0,0.14 -0.1866,0.32666 l -10.1267,11.38667 h 12.9267 q 0.3733,0 0.56,0.23333 0.2333,0.23334 0.2333,0.56 v 1.35334 q 0,0.32666 -0.2333,0.56 -0.1867,0.23333 -0.56,0.23333 h -17.1734 q -0.3266,0 -0.56,-0.28 -0.2333,-0.28 -0.2333,-0.84 z"
         style="font-style:normal;font-variant:normal;font-weight:normal;font-stretch:normal;font-size:46.66666794px;line-height:0;font-family:'neo latina';-inkscape-font-specification:'neo latina';word-spacing:0px"
         id="path976" />
      <path
         d="m 1187.1641,404.14203 h 14.14 q 0.3267,0 0.56,0.23333 0.2334,0.23334 0.2334,0.56 v 1.35334 q 0,0.32666 -0.2334,0.56 -0.2333,0.23333 -0.56,0.23333 h -16.52 q -0.3266,0 -0.56,-0.23333 -0.2333,-0.23334 -0.2333,-0.56 v -18.2 q 0,-0.32667 0.2333,-0.56 0.2334,-0.23334 0.56,-0.23334 h 16.3334 q 0.3266,0 0.56,0.23334 0.2333,0.23333 0.2333,0.56 v 1.35333 q 0,0.32667 -0.2333,0.56 -0.2334,0.23333 -0.56,0.23333 h -13.9534 z m 2.4267,-8.02667 q 0,-0.32666 0.2333,-0.56 0.2334,-0.23333 0.56,-0.23333 h 9.5667 q 0.3267,0 0.56,0.23333 0.2333,0.23334 0.2333,0.56 v 1.35334 q 0,0.37333 -0.2333,0.60666 -0.2333,0.18667 -0.56,0.18667 h -9.5667 q -0.3266,0 -0.56,-0.18667 -0.2333,-0.23333 -0.2333,-0.60666 z"
         style="font-style:normal;font-variant:normal;font-weight:normal;font-stretch:normal;font-size:46.66666794px;line-height:0;font-family:'neo latina';-inkscape-font-specification:'neo latina';word-spacing:0px"
         id="path978" />
      <path
         d="m 1215.6046,404.93536 q 0,-0.32666 0.2333,-0.56 0.2333,-0.23333 0.56,-0.23333 h 9.4733 q 0.56,0 0.9334,-0.37333 0.42,-0.42 0.42,-0.98 v -11.2 q 0,-0.56 -0.42,-0.93334 -0.3734,-0.42 -0.9334,-0.42 h -12.6933 v 16.05334 q 0,0.32666 -0.2333,0.56 -0.2334,0.23333 -0.56,0.23333 h -1.7734 q -0.3266,0 -0.56,-0.23333 -0.2333,-0.23334 -0.2333,-0.56 v -18.2 q 0,-0.32667 0.2333,-0.56 0.2334,-0.23334 0.56,-0.23334 h 15.7267 q 1.7733,0 2.9867,1.21334 1.2133,1.21333 1.2133,2.98666 v 11.38667 q 0,1.77333 -1.2133,2.98667 -1.2134,1.21333 -2.9867,1.21333 h -9.94 q -0.3267,0 -0.56,-0.23333 -0.2333,-0.23334 -0.2333,-0.56 z"
         style="font-style:normal;font-variant:normal;font-weight:normal;font-stretch:normal;font-size:46.66666794px;line-height:0;font-family:'neo latina';-inkscape-font-specification:'neo latina';word-spacing:0px"
         id="path980" />
      <path
         d="m 1261.4465,388.0887 q 0.14,-0.32667 0.4667,-0.56 0.3733,-0.23334 0.7,-0.23334 h 1.68 q 0.3266,0 0.6533,0.23334 0.3733,0.23333 0.56,0.56 l 9.66,18.2 q 0.093,0.28 0.093,0.37333 0,0.42 -0.4666,0.42 h -2.1467 q -0.5133,0 -0.84,-0.56 l -2.1933,-4.10667 h -9.1 q -0.4667,0 -0.4667,-0.42 0,-0.0933 0.093,-0.37333 l 0.7467,-1.44667 q 0.3267,-0.56 0.84,-0.56 h 6.3933 l -4.7133,-9.19333 -8.2133,16.1 q -0.093,0.23333 -0.3734,0.42 -0.2333,0.14 -0.4666,0.14 h -2.0067 q -0.4667,0 -0.4667,-0.42 0,-0.0933 0.093,-0.37333 z"
         style="font-style:normal;font-variant:normal;font-weight:normal;font-stretch:normal;font-size:46.66666794px;line-height:0;font-family:'neo latina';-inkscape-font-specification:'neo latina';word-spacing:0px"
         id="path982" />
      <path
         d="m 1300.1522,395.7887 q 0.3266,0 0.56,0.23333 0.2333,0.23333 0.2333,0.56 v 8.12 q 0,0.98 -0.7,1.68 -0.6533,0.7 -1.6333,0.7 h -11.7134 q -0.3266,0 -0.56,-0.23333 -0.2333,-0.23334 -0.2333,-0.56 v -1.35334 q 0,-0.32666 0.2333,-0.56 0.2334,-0.23333 0.56,-0.23333 h 10.7334 v -5.64667 h -6.2534 q -0.3733,0 -0.6066,-0.23333 -0.1867,-0.23333 -0.1867,-0.56 v -1.12 q 0,-0.32667 0.1867,-0.56 0.2333,-0.23333 0.6066,-0.23333 z m -1.5867,-8.49334 q 0.98,0 1.68,0.7 0.7,0.7 0.7,1.68 v 2.19334 q 0,0.37333 -0.2333,0.60666 -0.2334,0.18667 -0.56,0.18667 h -1.7734 q -0.7933,0 -0.7933,-0.79333 v -1.63334 h -13.9067 v 16.05334 q 0,0.32666 -0.1866,0.56 -0.14,0.23333 -0.4667,0.23333 h -1.7733 q -0.3267,0 -0.56,-0.23333 -0.2334,-0.23334 -0.2334,-0.56 v -18.2 q 0,-0.32667 0.2334,-0.56 0.2333,-0.23334 0.56,-0.23334 z"
         style="font-style:normal;font-variant:normal;font-weight:normal;font-stretch:normal;font-size:46.66666794px;line-height:0;font-family:'neo latina';-inkscape-font-specification:'neo latina';word-spacing:0px"
         id="path984" />
      <path
         d="m 1311.6693,404.14203 h 14.14 q 0.3267,0 0.56,0.23333 0.2334,0.23334 0.2334,0.56 v 1.35334 q 0,0.32666 -0.2334,0.56 -0.2333,0.23333 -0.56,0.23333 h -16.52 q -0.3266,0 -0.56,-0.23333 -0.2333,-0.23334 -0.2333,-0.56 v -18.2 q 0,-0.32667 0.2333,-0.56 0.2334,-0.23334 0.56,-0.23334 h 16.3334 q 0.3266,0 0.56,0.23334 0.2333,0.23333 0.2333,0.56 v 1.35333 q 0,0.32667 -0.2333,0.56 -0.2334,0.23333 -0.56,0.23333 h -13.9534 z m 2.4267,-8.02667 q 0,-0.32666 0.2333,-0.56 0.2334,-0.23333 0.56,-0.23333 h 9.5667 q 0.3267,0 0.56,0.23333 0.2333,0.23334 0.2333,0.56 v 1.35334 q 0,0.37333 -0.2333,0.60666 -0.2333,0.18667 -0.56,0.18667 h -9.5667 q -0.3266,0 -0.56,-0.18667 -0.2333,-0.23333 -0.2333,-0.60666 z"
         style="font-style:normal;font-variant:normal;font-weight:normal;font-stretch:normal;font-size:46.66666794px;line-height:0;font-family:'neo latina';-inkscape-font-specification:'neo latina';word-spacing:0px"
         id="path986" />
      <path
         d="m 1332.9231,392.33536 q 0,-0.23333 0.14,-0.23333 0.093,0 0.42,0.23333 l 2.0533,2.05334 q 0.1867,0.23333 0.3267,0.51333 0.14,0.23333 0.14,0.42 v 10.96667 q 0,0.32666 -0.2334,0.56 -0.1866,0.23333 -0.56,0.23333 h -1.4933 q -0.3267,0 -0.56,-0.23333 -0.2333,-0.23334 -0.2333,-0.56 z m 0,-4.24666 q 0,-0.37334 0.2333,-0.56 0.2333,-0.23334 0.56,-0.23334 h 0.9333 q 0.3267,0 0.7467,0.23334 0.4667,0.18666 0.84,0.56 l 14.1867,14.42 v -14.42 q 0,-0.32667 0.1866,-0.56 0.2334,-0.23334 0.6067,-0.23334 h 1.4933 q 0.3267,0 0.56,0.23334 0.2334,0.23333 0.2334,0.56 v 18.2 q 0,0.32666 -0.2334,0.56 -0.2333,0.23333 -0.56,0.23333 h -1.54 q -0.42,0 -0.6066,-0.28 l -17.64,-17.92 z"
         style="font-style:normal;font-variant:normal;font-weight:normal;font-stretch:normal;font-size:46.66666794px;line-height:0;font-family:'neo latina';-inkscape-font-specification:'neo latina';word-spacing:0px"
         id="path988" />
      <path
         d="m 1358.5985,388.0887 q 0,-0.32667 0.2333,-0.56 0.2334,-0.23334 0.56,-0.23334 h 18.5267 q 0.3733,0 0.56,0.23334 0.2333,0.23333 0.2333,0.56 v 1.35333 q 0,0.32667 -0.2333,0.56 -0.1867,0.23333 -0.56,0.23333 h -18.5267 q -0.3266,0 -0.56,-0.23333 -0.2333,-0.23333 -0.2333,-0.56 z m 8.3533,5.27333 q 0,-0.79333 0.7934,-0.79333 h 1.7733 q 0.7933,0 0.7933,0.79333 v 12.92667 q 0,0.32666 -0.2333,0.56 -0.1867,0.23333 -0.56,0.23333 h -1.7733 q -0.3734,0 -0.6067,-0.23333 -0.1867,-0.23334 -0.1867,-0.56 z"
         style="font-style:normal;font-variant:normal;font-weight:normal;font-stretch:normal;font-size:46.66666794px;line-height:0;font-family:'neo latina';-inkscape-font-specification:'neo latina';word-spacing:0px"
         id="path990" />
      <path
         d="m 1383.2691,401.9487 q 0,-0.32667 0.2333,-0.56 0.2334,-0.23334 0.56,-0.23334 h 1.54 q 0.6534,0 0.7467,0.65334 0.2333,0.98 0.98,1.68 0.7467,0.65333 1.7733,0.65333 h 8.0267 q 1.1667,0 1.96,-0.84 0.7933,-0.88667 0.7933,-2.05333 0,-1.16667 -0.7933,-2.00667 -0.7933,-0.84 -1.96,-0.84 h -7.7 q -1.1667,0 -2.1933,-0.42 -0.98,-0.42 -1.7734,-1.16667 -0.7466,-0.74666 -1.2133,-1.72666 -0.42,-1.02667 -0.42,-2.19334 0,-1.16666 0.42,-2.14666 0.4667,-1.02667 1.2133,-1.77334 0.7934,-0.79333 1.7734,-1.21333 1.0266,-0.46667 2.1933,-0.46667 h 7.6067 q 1.0266,0 1.96,0.37334 0.98,0.37333 1.68,1.02666 0.7466,0.65334 1.2133,1.54 0.5133,0.88667 0.6533,1.91334 0,0.79333 -0.7933,0.79333 h -1.4933 q -0.7,0 -0.7934,-0.65333 -0.1866,-0.88667 -0.8866,-1.44667 -0.7,-0.60667 -1.6334,-0.60667 h -7.56 q -1.0733,0 -1.82,0.79334 -0.7466,0.74666 -0.7466,1.82 0,1.07333 0.7466,1.86666 0.7467,0.79334 1.82,0.79334 h 7.7 q 1.2134,0 2.2867,0.46666 1.0733,0.42 1.8667,1.21334 0.7933,0.74666 1.26,1.82 0.4666,1.02666 0.4666,2.24 0,1.21333 -0.4666,2.28666 -0.4667,1.02667 -1.26,1.82 -0.7934,0.79334 -1.8667,1.26 -1.0733,0.46667 -2.2867,0.46667 h -8.0266 q -1.12,0 -2.1467,-0.37333 -0.98,-0.42 -1.7733,-1.12 -0.7467,-0.7 -1.26,-1.63334 -0.5134,-0.93333 -0.6067,-2.00666 z"
         style="font-style:normal;font-variant:normal;font-weight:normal;font-stretch:normal;font-size:46.66666794px;line-height:0;font-family:'neo latina';-inkscape-font-specification:'neo latina';word-spacing:0px"
         id="path992" />
      <path
         d="m 1444.5031,400.5487 q -0.14,-0.28 -0.14,-0.46667 v -0.18667 q 0,-0.0467 0.047,-0.0467 l 4.1533,-12.08667 q 0.14,-0.46667 0.6067,-0.46667 h 1.9133 q 0.56,0 0.56,0.56 0,0.14 -0.047,0.23334 l -5.1333,14.98 q -0.14,0.23333 -0.3267,0.23333 -0.2333,0 -0.3266,-0.18667 z m -6.7667,-3.82667 -4.76,9.56667 q -0.1866,0.32666 -0.56,0.56 -0.3266,0.23333 -0.84,0.23333 h -0.9333 q -0.3267,0 -0.6534,-0.23333 -0.3266,-0.23334 -0.42,-0.56 l -6.2533,-18.2 q -0.047,-0.0933 -0.047,-0.23334 0,-0.56 0.56,-0.56 h 2.0534 q 0.4666,0 0.6066,0.46667 l 5.2734,15.68 4.2,-8.44667 q 0.2333,-0.46666 0.7467,-0.7 0.56,-0.23333 1.0733,-0.23333 0.5133,0 1.0267,0.23333 0.5133,0.23334 0.7466,0.7 l 5.6934,11.43334 q 0.093,0.18666 0.093,0.28 0,0.37333 -0.56,0.37333 h -1.26 q -0.3733,0 -0.7,-0.23333 -0.3267,-0.23334 -0.5133,-0.56 z"
         style="font-style:normal;font-variant:normal;font-weight:normal;font-stretch:normal;font-size:46.66666794px;line-height:0;font-family:'neo latina';-inkscape-font-specification:'neo latina';word-spacing:0px"
         id="path994" />
      <path
         d="m 1457.0616,388.0887 q 0,-0.32667 0.2333,-0.56 0.2333,-0.23334 0.56,-0.23334 h 1.7733 q 0.3267,0 0.56,0.23334 0.2334,0.23333 0.2334,0.56 v 18.2 q 0,0.32666 -0.2334,0.56 -0.2333,0.23333 -0.56,0.23333 h -1.7733 q -0.3267,0 -0.56,-0.23333 -0.2333,-0.23334 -0.2333,-0.56 z"
         style="font-style:normal;font-variant:normal;font-weight:normal;font-stretch:normal;font-size:46.66666794px;line-height:0;font-family:'neo latina';-inkscape-font-specification:'neo latina';word-spacing:0px"
         id="path996" />
      <path
         d="m 1465.4214,388.0887 q 0,-0.32667 0.2333,-0.56 0.2334,-0.23334 0.56,-0.23334 h 18.5267 q 0.3733,0 0.56,0.23334 0.2333,0.23333 0.2333,0.56 v 1.35333 q 0,0.32667 -0.2333,0.56 -0.1867,0.23333 -0.56,0.23333 h -18.5267 q -0.3266,0 -0.56,-0.23333 -0.2333,-0.23333 -0.2333,-0.56 z m 8.3533,5.27333 q 0,-0.79333 0.7934,-0.79333 h 1.7733 q 0.7933,0 0.7933,0.79333 v 12.92667 q 0,0.32666 -0.2333,0.56 -0.1867,0.23333 -0.56,0.23333 h -1.7733 q -0.3734,0 -0.6067,-0.23333 -0.1867,-0.23334 -0.1867,-0.56 z"
         style="font-style:normal;font-variant:normal;font-weight:normal;font-stretch:normal;font-size:46.66666794px;line-height:0;font-family:'neo latina';-inkscape-font-specification:'neo latina';word-spacing:0px"
         id="path998" />
      <path
         d="m 1490.6054,388.0887 q 0,-0.37334 0.2333,-0.56 0.2334,-0.23334 0.56,-0.23334 h 1.7734 q 0.3266,0 0.56,0.23334 0.2333,0.18666 0.2333,0.56 v 18.2 q 0,0.32666 -0.2333,0.56 -0.2334,0.23333 -0.56,0.23333 h -1.7734 q -0.3266,0 -0.56,-0.23333 -0.2333,-0.23334 -0.2333,-0.56 z m 5.74,7.98 q 0,-0.32667 0.2333,-0.56 0.2334,-0.23334 0.56,-0.23334 h 11.06 v -7.18666 q 0,-0.32667 0.2334,-0.56 0.2333,-0.23334 0.56,-0.23334 h 1.7266 q 0.3267,0 0.56,0.23334 0.2334,0.23333 0.2334,0.56 v 18.2 q 0,0.32666 -0.2334,0.56 -0.2333,0.23333 -0.56,0.23333 h -1.7266 q -0.3267,0 -0.56,-0.23333 -0.2334,-0.23334 -0.2334,-0.56 v -8.07334 h -11.06 q -0.3266,0 -0.56,-0.18666 -0.2333,-0.23334 -0.2333,-0.60667 z"
         style="font-style:normal;font-variant:normal;font-weight:normal;font-stretch:normal;font-size:46.66666794px;line-height:0;font-family:'neo latina';-inkscape-font-specification:'neo latina';word-spacing:0px"
         id="path1000" />
      <path
         d="m 1535.5403,388.0887 q 0,-0.37334 0.2333,-0.56 0.2333,-0.23334 0.56,-0.23334 h 1.7733 q 0.3267,0 0.56,0.23334 0.2334,0.18666 0.2334,0.56 v 18.2 q 0,0.32666 -0.2334,0.56 -0.2333,0.23333 -0.56,0.23333 h -1.7733 q -0.3267,0 -0.56,-0.23333 -0.2333,-0.23334 -0.2333,-0.56 z m 5.74,7.98 q 0,-0.32667 0.2333,-0.56 0.2333,-0.23334 0.56,-0.23334 h 11.06 v -7.18666 q 0,-0.32667 0.2333,-0.56 0.2334,-0.23334 0.56,-0.23334 h 1.7267 q 0.3267,0 0.56,0.23334 0.2333,0.23333 0.2333,0.56 v 18.2 q 0,0.32666 -0.2333,0.56 -0.2333,0.23333 -0.56,0.23333 h -1.7267 q -0.3266,0 -0.56,-0.23333 -0.2333,-0.23334 -0.2333,-0.56 v -8.07334 h -11.06 q -0.3267,0 -0.56,-0.18666 -0.2333,-0.23334 -0.2333,-0.60667 z"
         style="font-style:normal;font-variant:normal;font-weight:normal;font-stretch:normal;font-size:46.66666794px;line-height:0;font-family:'neo latina';-inkscape-font-specification:'neo latina';word-spacing:0px"
         id="path1002" />
      <path
         d="m 1567.8803,404.14203 h 14.14 q 0.3266,0 0.56,0.23333 0.2333,0.23334 0.2333,0.56 v 1.35334 q 0,0.32666 -0.2333,0.56 -0.2334,0.23333 -0.56,0.23333 h -16.52 q -0.3267,0 -0.56,-0.23333 -0.2334,-0.23334 -0.2334,-0.56 v -18.2 q 0,-0.32667 0.2334,-0.56 0.2333,-0.23334 0.56,-0.23334 h 16.3333 q 0.3267,0 0.56,0.23334 0.2333,0.23333 0.2333,0.56 v 1.35333 q 0,0.32667 -0.2333,0.56 -0.2333,0.23333 -0.56,0.23333 h -13.9533 z m 2.4266,-8.02667 q 0,-0.32666 0.2334,-0.56 0.2333,-0.23333 0.56,-0.23333 h 9.5666 q 0.3267,0 0.56,0.23333 0.2334,0.23334 0.2334,0.56 v 1.35334 q 0,0.37333 -0.2334,0.60666 -0.2333,0.18667 -0.56,0.18667 h -9.5666 q -0.3267,0 -0.56,-0.18667 -0.2334,-0.23333 -0.2334,-0.60666 z"
         style="font-style:normal;font-variant:normal;font-weight:normal;font-stretch:normal;font-size:46.66666794px;line-height:0;font-family:'neo latina';-inkscape-font-specification:'neo latina';word-spacing:0px"
         id="path1004" />
      <path
         d="m 1586.0073,388.0887 q 0,-0.32667 0.2334,-0.56 0.2333,-0.23334 0.56,-0.23334 h 18.5266 q 0.3734,0 0.56,0.23334 0.2334,0.23333 0.2334,0.56 v 1.35333 q 0,0.32667 -0.2334,0.56 -0.1866,0.23333 -0.56,0.23333 h -18.5266 q -0.3267,0 -0.56,-0.23333 -0.2334,-0.23333 -0.2334,-0.56 z m 8.3534,5.27333 q 0,-0.79333 0.7933,-0.79333 h 1.7733 q 0.7934,0 0.7934,0.79333 v 12.92667 q 0,0.32666 -0.2334,0.56 -0.1866,0.23333 -0.56,0.23333 h -1.7733 q -0.3733,0 -0.6067,-0.23333 -0.1866,-0.23334 -0.1866,-0.56 z"
         style="font-style:normal;font-variant:normal;font-weight:normal;font-stretch:normal;font-size:46.66666794px;line-height:0;font-family:'neo latina';-inkscape-font-specification:'neo latina';word-spacing:0px"
         id="path1006" />
      <path
         d="m 1614.3647,404.14203 h 14.14 q 0.3266,0 0.56,0.23333 0.2333,0.23334 0.2333,0.56 v 1.35334 q 0,0.32666 -0.2333,0.56 -0.2334,0.23333 -0.56,0.23333 h -16.52 q -0.3267,0 -0.56,-0.23333 -0.2334,-0.23334 -0.2334,-0.56 v -18.2 q 0,-0.32667 0.2334,-0.56 0.2333,-0.23334 0.56,-0.23334 h 16.3333 q 0.3267,0 0.56,0.23334 0.2333,0.23333 0.2333,0.56 v 1.35333 q 0,0.32667 -0.2333,0.56 -0.2333,0.23333 -0.56,0.23333 h -13.9533 z m 2.4266,-8.02667 q 0,-0.32666 0.2334,-0.56 0.2333,-0.23333 0.56,-0.23333 h 9.5666 q 0.3267,0 0.56,0.23333 0.2334,0.23334 0.2334,0.56 v 1.35334 q 0,0.37333 -0.2334,0.60666 -0.2333,0.18667 -0.56,0.18667 h -9.5666 q -0.3267,0 -0.56,-0.18667 -0.2334,-0.23333 -0.2334,-0.60666 z"
         style="font-style:normal;font-variant:normal;font-weight:normal;font-stretch:normal;font-size:46.66666794px;line-height:0;font-family:'neo latina';-inkscape-font-specification:'neo latina';word-spacing:0px"
         id="path1008" />
      <path
         d="m 1647.8917,387.29536 q 1.3067,0 2.38,0.46667 1.12,0.46667 1.9134,1.30667 0.7933,0.79333 1.26,1.86666 0.4666,1.07334 0.4666,2.33334 0,2.24 -1.3066,3.82666 -1.3067,1.54 -3.3134,2.00667 l 5.32,7.18667 q 0.14,0.23333 0.14,0.46666 0,0.32667 -0.3733,0.32667 h -2.5667 q -0.14,0 -0.3266,-0.0933 -0.14,-0.0933 -0.2334,-0.23334 l -5.5533,-7.46666 h -3.5467 q -0.3266,0 -0.56,-0.23334 -0.2333,-0.23333 -0.2333,-0.56 v -1.21333 q 0,-0.32667 0.2333,-0.56 0.2334,-0.23333 0.56,-0.23333 h 5.6 q 1.4,0 2.2867,-0.88667 0.8867,-0.88667 0.8867,-2.28667 0,-1.30666 -0.9334,-2.19333 -0.9333,-0.88667 -2.24,-0.88667 h -8.8666 v 16.05334 q 0,0.32666 -0.2334,0.56 -0.2333,0.23333 -0.56,0.23333 h -1.68 q -0.3266,0 -0.56,-0.23333 -0.2333,-0.23334 -0.2333,-0.56 v -18.2 q 0,-0.32667 0.2333,-0.56 0.2334,-0.23334 0.56,-0.23334 z"
         style="font-style:normal;font-variant:normal;font-weight:normal;font-stretch:normal;font-size:46.66666794px;line-height:0;font-family:'neo latina';-inkscape-font-specification:'neo latina';word-spacing:0px"
         id="path1010" />
      <path
         d="m 1660.5836,390.23536 q 0,-0.51333 0.2333,-1.02666 0.28,-0.56 0.7,-0.98 0.42,-0.42 0.9334,-0.65334 0.56,-0.28 1.0733,-0.28 h 15.1667 q 0.56,0 1.0733,0.28 0.5133,0.23334 0.9333,0.65334 0.42,0.42 0.6534,0.98 0.28,0.51333 0.28,1.02666 v 13.90667 q 0,0.51333 -0.28,1.07333 -0.2334,0.51334 -0.6534,0.93334 -0.42,0.42 -0.9333,0.7 -0.5133,0.23333 -1.0733,0.23333 h -15.1667 q -0.5133,0 -1.0733,-0.23333 -0.5134,-0.28 -0.9334,-0.7 -0.42,-0.42 -0.7,-0.93334 -0.2333,-0.56 -0.2333,-1.07333 z m 3.22,13.90667 h 14.6067 v -13.90667 h -14.6067 z"
         style="font-style:normal;font-variant:normal;font-weight:normal;font-stretch:normal;font-size:46.66666794px;line-height:0;font-family:'neo latina';-inkscape-font-specification:'neo latina';word-spacing:0px"
         id="path1012" />
      <path
         d="m 1708.7589,395.7887 q 0.3267,0 0.56,0.23333 0.2333,0.23333 0.2333,0.56 v 8.12 q 0,0.98 -0.7,1.68 -0.6533,0.7 -1.6333,0.7 h -11.7133 q -0.3267,0 -0.56,-0.23333 -0.2334,-0.23334 -0.2334,-0.56 v -1.35334 q 0,-0.32666 0.2334,-0.56 0.2333,-0.23333 0.56,-0.23333 h 10.7333 v -5.64667 h -6.2533 q -0.3734,0 -0.6067,-0.23333 -0.1867,-0.23333 -0.1867,-0.56 v -1.12 q 0,-0.32667 0.1867,-0.56 0.2333,-0.23333 0.6067,-0.23333 z m -1.5867,-8.49334 q 0.98,0 1.68,0.7 0.7,0.7 0.7,1.68 v 2.19334 q 0,0.37333 -0.2333,0.60666 -0.2333,0.18667 -0.56,0.18667 h -1.7733 q -0.7934,0 -0.7934,-0.79333 v -1.63334 h -13.9066 v 16.05334 q 0,0.32666 -0.1867,0.56 -0.14,0.23333 -0.4667,0.23333 h -1.7733 q -0.3267,0 -0.56,-0.23333 -0.2333,-0.23334 -0.2333,-0.56 v -18.2 q 0,-0.32667 0.2333,-0.56 0.2333,-0.23334 0.56,-0.23334 z"
         style="font-style:normal;font-variant:normal;font-weight:normal;font-stretch:normal;font-size:46.66666794px;line-height:0;font-family:'neo latina';-inkscape-font-specification:'neo latina';word-spacing:0px"
         id="path1014" />
      <path
         d="m 1720.2761,404.14203 h 14.14 q 0.3267,0 0.56,0.23333 0.2333,0.23334 0.2333,0.56 v 1.35334 q 0,0.32666 -0.2333,0.56 -0.2333,0.23333 -0.56,0.23333 h -16.52 q -0.3267,0 -0.56,-0.23333 -0.2333,-0.23334 -0.2333,-0.56 v -18.2 q 0,-0.32667 0.2333,-0.56 0.2333,-0.23334 0.56,-0.23334 h 16.3333 q 0.3267,0 0.56,0.23334 0.2334,0.23333 0.2334,0.56 v 1.35333 q 0,0.32667 -0.2334,0.56 -0.2333,0.23333 -0.56,0.23333 h -13.9533 z m 2.4267,-8.02667 q 0,-0.32666 0.2333,-0.56 0.2333,-0.23333 0.56,-0.23333 h 9.5667 q 0.3266,0 0.56,0.23333 0.2333,0.23334 0.2333,0.56 v 1.35334 q 0,0.37333 -0.2333,0.60666 -0.2334,0.18667 -0.56,0.18667 h -9.5667 q -0.3267,0 -0.56,-0.18667 -0.2333,-0.23333 -0.2333,-0.60666 z"
         style="font-style:normal;font-variant:normal;font-weight:normal;font-stretch:normal;font-size:46.66666794px;line-height:0;font-family:'neo latina';-inkscape-font-specification:'neo latina';word-spacing:0px"
         id="path1016" />
      <path
         d="m 1741.5299,392.33536 q 0,-0.23333 0.14,-0.23333 0.093,0 0.42,0.23333 l 2.0533,2.05334 q 0.1867,0.23333 0.3267,0.51333 0.14,0.23333 0.14,0.42 v 10.96667 q 0,0.32666 -0.2333,0.56 -0.1867,0.23333 -0.56,0.23333 h -1.4934 q -0.3266,0 -0.56,-0.23333 -0.2333,-0.23334 -0.2333,-0.56 z m 0,-4.24666 q 0,-0.37334 0.2333,-0.56 0.2334,-0.23334 0.56,-0.23334 h 0.9334 q 0.3266,0 0.7466,0.23334 0.4667,0.18666 0.84,0.56 l 14.1867,14.42 v -14.42 q 0,-0.32667 0.1867,-0.56 0.2333,-0.23334 0.6066,-0.23334 h 1.4934 q 0.3266,0 0.56,0.23334 0.2333,0.23333 0.2333,0.56 v 18.2 q 0,0.32666 -0.2333,0.56 -0.2334,0.23333 -0.56,0.23333 h -1.54 q -0.42,0 -0.6067,-0.28 l -17.64,-17.92 z"
         style="font-style:normal;font-variant:normal;font-weight:normal;font-stretch:normal;font-size:46.66666794px;line-height:0;font-family:'neo latina';-inkscape-font-specification:'neo latina';word-spacing:0px"
         id="path1018" />
      <path
         d="m 1773.5053,404.14203 h 14.14 q 0.3266,0 0.56,0.23333 0.2333,0.23334 0.2333,0.56 v 1.35334 q 0,0.32666 -0.2333,0.56 -0.2334,0.23333 -0.56,0.23333 h -16.52 q -0.3267,0 -0.56,-0.23333 -0.2334,-0.23334 -0.2334,-0.56 v -18.2 q 0,-0.32667 0.2334,-0.56 0.2333,-0.23334 0.56,-0.23334 h 16.3333 q 0.3267,0 0.56,0.23334 0.2333,0.23333 0.2333,0.56 v 1.35333 q 0,0.32667 -0.2333,0.56 -0.2333,0.23333 -0.56,0.23333 h -13.9533 z m 2.4266,-8.02667 q 0,-0.32666 0.2334,-0.56 0.2333,-0.23333 0.56,-0.23333 h 9.5666 q 0.3267,0 0.56,0.23333 0.2334,0.23334 0.2334,0.56 v 1.35334 q 0,0.37333 -0.2334,0.60666 -0.2333,0.18667 -0.56,0.18667 h -9.5666 q -0.3267,0 -0.56,-0.18667 -0.2334,-0.23333 -0.2334,-0.60666 z"
         style="font-style:normal;font-variant:normal;font-weight:normal;font-stretch:normal;font-size:46.66666794px;line-height:0;font-family:'neo latina';-inkscape-font-specification:'neo latina';word-spacing:0px"
         id="path1020" />
      <path
         d="m 1794.3857,390.23536 q 0,-0.51333 0.2333,-1.02666 0.28,-0.56 0.7,-0.98 0.42,-0.42 0.9333,-0.65334 0.56,-0.28 1.0734,-0.28 h 15.1666 q 0.56,0 1.0734,0.28 0.5133,0.23334 0.9333,0.65334 0.42,0.42 0.6533,0.98 0.28,0.51333 0.28,1.02666 v 13.90667 q 0,0.51333 -0.28,1.07333 -0.2333,0.51334 -0.6533,0.93334 -0.42,0.42 -0.9333,0.7 -0.5134,0.23333 -1.0734,0.23333 h -15.1666 q -0.5134,0 -1.0734,-0.23333 -0.5133,-0.28 -0.9333,-0.7 -0.42,-0.42 -0.7,-0.93334 -0.2333,-0.56 -0.2333,-1.07333 z m 3.22,13.90667 h 14.6066 v -13.90667 h -14.6066 z"
         style="font-style:normal;font-variant:normal;font-weight:normal;font-stretch:normal;font-size:46.66666794px;line-height:0;font-family:'neo latina';-inkscape-font-specification:'neo latina';word-spacing:0px"
         id="path1022" />
      <path
         d="m 1839.2477,388.0887 q 0,-0.32667 0.2333,-0.56 0.2334,-0.23334 0.56,-0.23334 h 1.7734 q 0.3266,0 0.56,0.23334 0.2333,0.23333 0.2333,0.56 v 16.61333 q 0,0.98 -0.7,1.68 -0.7,0.7 -1.68,0.7 h -14.56 q -0.98,0 -1.68,-0.7 -0.7,-0.7 -0.7,-1.68 V 388.0887 q 0,-0.32667 0.2333,-0.56 0.2334,-0.23334 0.56,-0.23334 h 1.7734 q 0.3266,0 0.56,0.23334 0.2333,0.23333 0.2333,0.56 v 16.05333 h 12.6 z"
         style="font-style:normal;font-variant:normal;font-weight:normal;font-stretch:normal;font-size:46.66666794px;line-height:0;font-family:'neo latina';-inkscape-font-specification:'neo latina';word-spacing:0px"
         id="path1024" />
      <path
         d="m 1850.3004,401.9487 q 0,-0.32667 0.2333,-0.56 0.2333,-0.23334 0.56,-0.23334 h 1.54 q 0.6533,0 0.7467,0.65334 0.2333,0.98 0.98,1.68 0.7466,0.65333 1.7733,0.65333 h 8.0267 q 1.1666,0 1.96,-0.84 0.7933,-0.88667 0.7933,-2.05333 0,-1.16667 -0.7933,-2.00667 -0.7934,-0.84 -1.96,-0.84 h -7.7 q -1.1667,0 -2.1934,-0.42 -0.98,-0.42 -1.7733,-1.16667 -0.7467,-0.74666 -1.2133,-1.72666 -0.42,-1.02667 -0.42,-2.19334 0,-1.16666 0.42,-2.14666 0.4666,-1.02667 1.2133,-1.77334 0.7933,-0.79333 1.7733,-1.21333 1.0267,-0.46667 2.1934,-0.46667 h 7.6066 q 1.0267,0 1.96,0.37334 0.98,0.37333 1.68,1.02666 0.7467,0.65334 1.2134,1.54 0.5133,0.88667 0.6533,1.91334 0,0.79333 -0.7933,0.79333 h -1.4934 q -0.7,0 -0.7933,-0.65333 -0.1867,-0.88667 -0.8867,-1.44667 -0.7,-0.60667 -1.6333,-0.60667 h -7.56 q -1.0733,0 -1.82,0.79334 -0.7467,0.74666 -0.7467,1.82 0,1.07333 0.7467,1.86666 0.7467,0.79334 1.82,0.79334 h 7.7 q 1.2133,0 2.2867,0.46666 1.0733,0.42 1.8666,1.21334 0.7934,0.74666 1.26,1.82 0.4667,1.02666 0.4667,2.24 0,1.21333 -0.4667,2.28666 -0.4666,1.02667 -1.26,1.82 -0.7933,0.79334 -1.8666,1.26 -1.0734,0.46667 -2.2867,0.46667 h -8.0267 q -1.12,0 -2.1466,-0.37333 -0.98,-0.42 -1.7734,-1.12 -0.7466,-0.7 -1.26,-1.63334 -0.5133,-0.93333 -0.6066,-2.00666 z"
         style="font-style:normal;font-variant:normal;font-weight:normal;font-stretch:normal;font-size:46.66666794px;line-height:0;font-family:'neo latina';-inkscape-font-specification:'neo latina';word-spacing:0px"
         id="path1026" />
      <path
         d="m 1912.841,406.52203 q 0.3734,0.28 0.3734,0.46667 0,0.0933 -0.1867,0.0933 h -3.92 q -0.1867,0 -0.5133,-0.0933 -0.3267,-0.14 -0.56,-0.37334 l -11.3867,-8.49333 v 8.16667 q 0,0.32666 -0.2333,0.56 -0.2334,0.23333 -0.56,0.23333 h -1.7734 q -0.3266,0 -0.56,-0.23333 -0.2333,-0.23334 -0.2333,-0.56 v -18.2 q 0,-0.37334 0.2333,-0.56 0.2334,-0.23334 0.56,-0.23334 h 1.7734 q 0.3266,0 0.56,0.23334 0.2333,0.18666 0.2333,0.56 v 6.58 z m -11.3866,-11.2 q -0.1867,0.0933 -0.2334,0.0933 -0.093,0 -0.1866,-0.0933 l -1.5867,-1.02667 q -0.14,-0.14 -0.14,-0.28 0,-0.18666 0.14,-0.32666 l 8.2133,-6.11334 q 0.28,-0.23333 0.4667,-0.23333 0.1867,-0.0467 0.42,-0.0467 h 3.4067 q 0.14,0 0.14,0.0933 0,0.0933 -0.3267,0.37333 z"
         style="font-style:normal;font-variant:normal;font-weight:normal;font-stretch:normal;font-size:46.66666794px;line-height:0;font-family:'neo latina';-inkscape-font-specification:'neo latina';word-spacing:0px"
         id="path1028" />
      <path
         d="m 1918.7174,392.33536 q 0,-0.23333 0.14,-0.23333 0.093,0 0.42,0.23333 l 2.0533,2.05334 q 0.1867,0.23333 0.3267,0.51333 0.14,0.23333 0.14,0.42 v 10.96667 q 0,0.32666 -0.2333,0.56 -0.1867,0.23333 -0.56,0.23333 h -1.4934 q -0.3266,0 -0.56,-0.23333 -0.2333,-0.23334 -0.2333,-0.56 z m 0,-4.24666 q 0,-0.37334 0.2333,-0.56 0.2334,-0.23334 0.56,-0.23334 h 0.9334 q 0.3266,0 0.7466,0.23334 0.4667,0.18666 0.84,0.56 l 14.1867,14.42 v -14.42 q 0,-0.32667 0.1867,-0.56 0.2333,-0.23334 0.6066,-0.23334 h 1.4934 q 0.3266,0 0.56,0.23334 0.2333,0.23333 0.2333,0.56 v 18.2 q 0,0.32666 -0.2333,0.56 -0.2334,0.23333 -0.56,0.23333 h -1.54 q -0.42,0 -0.6067,-0.28 l -17.64,-17.92 z"
         style="font-style:normal;font-variant:normal;font-weight:normal;font-stretch:normal;font-size:46.66666794px;line-height:0;font-family:'neo latina';-inkscape-font-specification:'neo latina';word-spacing:0px"
         id="path1030" />
      <path
         d="m 1947.1462,390.23536 q 0,-0.51333 0.2333,-1.02666 0.28,-0.56 0.7,-0.98 0.42,-0.42 0.9333,-0.65334 0.56,-0.28 1.0734,-0.28 h 15.1666 q 0.56,0 1.0734,0.28 0.5133,0.23334 0.9333,0.65334 0.42,0.42 0.6533,0.98 0.28,0.51333 0.28,1.02666 v 13.90667 q 0,0.51333 -0.28,1.07333 -0.2333,0.51334 -0.6533,0.93334 -0.42,0.42 -0.9333,0.7 -0.5134,0.23333 -1.0734,0.23333 h -15.1666 q -0.5134,0 -1.0734,-0.23333 -0.5133,-0.28 -0.9333,-0.7 -0.42,-0.42 -0.7,-0.93334 -0.2333,-0.56 -0.2333,-1.07333 z m 3.22,13.90667 h 14.6066 v -13.90667 h -14.6066 z"
         style="font-style:normal;font-variant:normal;font-weight:normal;font-stretch:normal;font-size:46.66666794px;line-height:0;font-family:'neo latina';-inkscape-font-specification:'neo latina';word-spacing:0px"
         id="path1032" />
      <path
         d="m 1994.2947,400.5487 q -0.14,-0.28 -0.14,-0.46667 v -0.18667 q 0,-0.0467 0.047,-0.0467 l 4.1533,-12.08667 q 0.14,-0.46667 0.6067,-0.46667 h 1.9133 q 0.56,0 0.56,0.56 0,0.14 -0.047,0.23334 l -5.1334,14.98 q -0.14,0.23333 -0.3266,0.23333 -0.2334,0 -0.3267,-0.18667 z m -6.7666,-3.82667 -4.76,9.56667 q -0.1867,0.32666 -0.56,0.56 -0.3267,0.23333 -0.84,0.23333 h -0.9334 q -0.3266,0 -0.6533,-0.23333 -0.3267,-0.23334 -0.42,-0.56 l -6.2533,-18.2 q -0.047,-0.0933 -0.047,-0.23334 0,-0.56 0.56,-0.56 h 2.0533 q 0.4667,0 0.6067,0.46667 l 5.2733,15.68 4.2,-8.44667 q 0.2334,-0.46666 0.7467,-0.7 0.56,-0.23333 1.0733,-0.23333 0.5134,0 1.0267,0.23333 0.5133,0.23334 0.7467,0.7 l 5.6933,11.43334 q 0.093,0.18666 0.093,0.28 0,0.37333 -0.56,0.37333 h -1.26 q -0.3733,0 -0.7,-0.23333 -0.3266,-0.23334 -0.5133,-0.56 z"
         style="font-style:normal;font-variant:normal;font-weight:normal;font-stretch:normal;font-size:46.66666794px;line-height:0;font-family:'neo latina';-inkscape-font-specification:'neo latina';word-spacing:0px"
         id="path1034" />
      <path
         d="m 2006.9465,388.0887 q 0,-0.32667 0.2333,-0.56 0.2334,-0.23334 0.56,-0.23334 h 1.68 q 0.3267,0 0.56,0.23334 0.2334,0.23333 0.2334,0.56 v 16.05333 h 13.1133 q 0.3267,0 0.56,0.23333 0.2333,0.23334 0.2333,0.56 v 1.35334 q 0,0.32666 -0.2333,0.56 -0.2333,0.23333 -0.56,0.23333 h -15.5867 q -0.3266,0 -0.56,-0.23333 -0.2333,-0.23334 -0.2333,-0.56 z"
         style="font-style:normal;font-variant:normal;font-weight:normal;font-stretch:normal;font-size:46.66666794px;line-height:0;font-family:'neo latina';-inkscape-font-specification:'neo latina';word-spacing:0px"
         id="path1036" />
      <path
         d="m 2032.5417,404.14203 h 14.14 q 0.3267,0 0.56,0.23333 0.2334,0.23334 0.2334,0.56 v 1.35334 q 0,0.32666 -0.2334,0.56 -0.2333,0.23333 -0.56,0.23333 h -16.52 q -0.3266,0 -0.56,-0.23333 -0.2333,-0.23334 -0.2333,-0.56 v -18.2 q 0,-0.32667 0.2333,-0.56 0.2334,-0.23334 0.56,-0.23334 h 16.3334 q 0.3266,0 0.56,0.23334 0.2333,0.23333 0.2333,0.56 v 1.35333 q 0,0.32667 -0.2333,0.56 -0.2334,0.23333 -0.56,0.23333 h -13.9534 z m 2.4267,-8.02667 q 0,-0.32666 0.2333,-0.56 0.2334,-0.23333 0.56,-0.23333 h 9.5667 q 0.3267,0 0.56,0.23333 0.2333,0.23334 0.2333,0.56 v 1.35334 q 0,0.37333 -0.2333,0.60666 -0.2333,0.18667 -0.56,0.18667 h -9.5667 q -0.3266,0 -0.56,-0.18667 -0.2333,-0.23333 -0.2333,-0.60666 z"
         style="font-style:normal;font-variant:normal;font-weight:normal;font-stretch:normal;font-size:46.66666794px;line-height:0;font-family:'neo latina';-inkscape-font-specification:'neo latina';word-spacing:0px"
         id="path1038" />
      <path
         d="m 2060.9822,404.93536 q 0,-0.32666 0.2333,-0.56 0.2333,-0.23333 0.56,-0.23333 h 9.4733 q 0.56,0 0.9334,-0.37333 0.42,-0.42 0.42,-0.98 v -11.2 q 0,-0.56 -0.42,-0.93334 -0.3734,-0.42 -0.9334,-0.42 h -12.6933 v 16.05334 q 0,0.32666 -0.2333,0.56 -0.2334,0.23333 -0.56,0.23333 h -1.7734 q -0.3266,0 -0.56,-0.23333 -0.2333,-0.23334 -0.2333,-0.56 v -18.2 q 0,-0.32667 0.2333,-0.56 0.2334,-0.23334 0.56,-0.23334 h 15.7267 q 1.7733,0 2.9867,1.21334 1.2133,1.21333 1.2133,2.98666 v 11.38667 q 0,1.77333 -1.2133,2.98667 -1.2134,1.21333 -2.9867,1.21333 h -9.94 q -0.3267,0 -0.56,-0.23333 -0.2333,-0.23334 -0.2333,-0.56 z"
         style="font-style:normal;font-variant:normal;font-weight:normal;font-stretch:normal;font-size:46.66666794px;line-height:0;font-family:'neo latina';-inkscape-font-specification:'neo latina';word-spacing:0px"
         id="path1040" />
      <path
         d="m 2103.3292,395.7887 q 0.3267,0 0.56,0.23333 0.2334,0.23333 0.2334,0.56 v 8.12 q 0,0.98 -0.7,1.68 -0.6534,0.7 -1.6334,0.7 h -11.7133 q -0.3267,0 -0.56,-0.23333 -0.2333,-0.23334 -0.2333,-0.56 v -1.35334 q 0,-0.32666 0.2333,-0.56 0.2333,-0.23333 0.56,-0.23333 h 10.7333 v -5.64667 h -6.2533 q -0.3733,0 -0.6067,-0.23333 -0.1866,-0.23333 -0.1866,-0.56 v -1.12 q 0,-0.32667 0.1866,-0.56 0.2334,-0.23333 0.6067,-0.23333 z m -1.5866,-8.49334 q 0.98,0 1.68,0.7 0.7,0.7 0.7,1.68 v 2.19334 q 0,0.37333 -0.2334,0.60666 -0.2333,0.18667 -0.56,0.18667 h -1.7733 q -0.7933,0 -0.7933,-0.79333 v -1.63334 h -13.9067 v 16.05334 q 0,0.32666 -0.1867,0.56 -0.14,0.23333 -0.4666,0.23333 h -1.7734 q -0.3266,0 -0.56,-0.23333 -0.2333,-0.23334 -0.2333,-0.56 v -18.2 q 0,-0.32667 0.2333,-0.56 0.2334,-0.23334 0.56,-0.23334 z"
         style="font-style:normal;font-variant:normal;font-weight:normal;font-stretch:normal;font-size:46.66666794px;line-height:0;font-family:'neo latina';-inkscape-font-specification:'neo latina';word-spacing:0px"
         id="path1042" />
      <path
         d="m 2114.8464,404.14203 h 14.14 q 0.3267,0 0.56,0.23333 0.2333,0.23334 0.2333,0.56 v 1.35334 q 0,0.32666 -0.2333,0.56 -0.2333,0.23333 -0.56,0.23333 h -16.52 q -0.3267,0 -0.56,-0.23333 -0.2333,-0.23334 -0.2333,-0.56 v -18.2 q 0,-0.32667 0.2333,-0.56 0.2333,-0.23334 0.56,-0.23334 h 16.3333 q 0.3267,0 0.56,0.23334 0.2334,0.23333 0.2334,0.56 v 1.35333 q 0,0.32667 -0.2334,0.56 -0.2333,0.23333 -0.56,0.23333 h -13.9533 z m 2.4267,-8.02667 q 0,-0.32666 0.2333,-0.56 0.2333,-0.23333 0.56,-0.23333 h 9.5667 q 0.3266,0 0.56,0.23333 0.2333,0.23334 0.2333,0.56 v 1.35334 q 0,0.37333 -0.2333,0.60666 -0.2334,0.18667 -0.56,0.18667 h -9.5667 q -0.3267,0 -0.56,-0.18667 -0.2333,-0.23333 -0.2333,-0.60666 z"
         style="font-style:normal;font-variant:normal;font-weight:normal;font-stretch:normal;font-size:46.66666794px;line-height:0;font-family:'neo latina';-inkscape-font-specification:'neo latina';word-spacing:0px"
         id="path1044" />
    </g>
    <path
       style="fill:none;stroke:#000000;stroke-width:1.23965812;stroke-linecap:butt;stroke-linejoin:miter;stroke-miterlimit:4;stroke-dasharray:none;stroke-opacity:1"
       d="M 153.20535,156.80563 H 493.00594"
       id="path877"
       inkscape:connector-curvature="0" />
    <flowRoot
       xml:space="preserve"
       id="flowRoot852"
       style="fill:black;fill-opacity:1;stroke:none;font-family:NEO-LATINA;font-style:normal;font-weight:normal;font-size:40px;line-height:1.25;letter-spacing:0px;word-spacing:0px;-inkscape-font-specification:NEO-LATINA;font-stretch:normal;font-variant:normal"><flowRegion
         id="flowRegion854"><rect
           id="rect856"
           width="210.86185"
           height="54.098682"
           x="490"
           y="228.77573" /></flowRegion><flowPara
         id="flowPara858"></flowPara></flowRoot>  </g>
</svg>
