<?xml version="1.0" encoding="UTF-8" standalone="no"?>
<!-- Created with Inkscape (http://www.inkscape.org/) -->

<svg
   xmlns:dc="http://purl.org/dc/elements/1.1/"
   xmlns:cc="http://creativecommons.org/ns#"
   xmlns:rdf="http://www.w3.org/1999/02/22-rdf-syntax-ns#"
   xmlns:svg="http://www.w3.org/2000/svg"
   xmlns="http://www.w3.org/2000/svg"
   xmlns:sodipodi="http://sodipodi.sourceforge.net/DTD/sodipodi-0.dtd"
   xmlns:inkscape="http://www.inkscape.org/namespaces/inkscape"
   width="66.273819mm"
   height="94.185638mm"
   viewBox="0 0 66.273819 94.185649"
   version="1.1"
   id="svg8"
   inkscape:version="0.92.5 (2060ec1f9f, 2020-04-08)"
   sodipodi:docname="Sole_expectation_logo.svg"
   inkscape:export-filename="/home/davide/Dropbox/WORK/11_res_proposals_and_reports/Accepted/EXPECTATIONS - Chistera (XAI) 2021/logo/sole_logo.png"
   inkscape:export-xdpi="243"
   inkscape:export-ydpi="243">
  <sodipodi:namedview
     id="base"
     pagecolor="#ffffff"
     bordercolor="#666666"
     borderopacity="1.0"
     inkscape:pageopacity="0.0"
     inkscape:pageshadow="2"
     inkscape:zoom="0.8657197"
     inkscape:cx="308.51777"
     inkscape:cy="74.312619"
     inkscape:document-units="mm"
     inkscape:current-layer="layer1"
     showgrid="false"
     showguides="true"
     inkscape:guide-bbox="true"
     inkscape:window-width="1440"
     inkscape:window-height="811"
     inkscape:window-x="0"
     inkscape:window-y="176"
     inkscape:window-maximized="1"
     fit-margin-top="0"
     fit-margin-left="0"
     fit-margin-right="0"
     fit-margin-bottom="0"
     inkscape:snap-bbox="true"
     inkscape:bbox-paths="true"
     inkscape:bbox-nodes="true"
     inkscape:snap-bbox-edge-midpoints="true"
     inkscape:snap-bbox-midpoints="true"
     inkscape:object-paths="true"
     inkscape:snap-intersection-paths="true"
     inkscape:snap-smooth-nodes="true"
     inkscape:snap-midpoints="true"
     inkscape:snap-object-midpoints="true"
     inkscape:snap-center="true"
     inkscape:snap-text-baseline="true"
     inkscape:snap-page="true">
    <sodipodi:guide
       position="47.651746,90.310668"
       orientation="0,1"
       id="guide818"
       inkscape:locked="false" />
    <sodipodi:guide
       position="4.6863401,75.061355"
       orientation="1,0"
       id="guide820"
       inkscape:locked="false" />
  </sodipodi:namedview>
  <defs
     id="defs2" />
  <metadata
     id="metadata5">
    <rdf:RDF>
      <cc:Work
         rdf:about="">
        <dc:format>image/svg+xml</dc:format>
        <dc:type
           rdf:resource="http://purl.org/dc/dcmitype/StillImage" />
        <dc:title />
      </cc:Work>
    </rdf:RDF>
  </metadata>
  <g
     transform="translate(-158.26922,-60.683068)"
     id="layer1"
     inkscape:groupmode="layer"
     inkscape:label="Layer 1">
    <path
       sodipodi:nodetypes="ccccccccccccccccccc"
       inkscape:connector-curvature="0"
       id="path826-5-7"
       d="m 159.05493,81.222214 32.33655,18.898816 32.40156,-18.787536 v 34.379056 l -32.40156,18.55717 -15.52184,-9.01688 v -14.59573 l 15.52184,8.96153 19.81992,-11.44303 v -5.24338 l -19.83809,11.45351 -19.7369,-11.39509 v 25.07698 l 19.83273,11.45044 32.19936,-18.59031 v 14.45701 l -32.24715,18.61791 -32.25952,-18.62505 z"
       style="fill:#0094ff;fill-opacity:1;stroke:#000000;stroke-width:1.5;stroke-linecap:butt;stroke-linejoin:miter;stroke-miterlimit:4;stroke-dasharray:none;stroke-opacity:1" />
    <path
       sodipodi:nodetypes="ccc"
       inkscape:connector-curvature="0"
       id="path832-6-6"
       d="m 158.64696,80.630164 32.72493,-19.078468 32.78022,19.193728"
       style="fill:none;stroke:#000000;stroke-width:1.5;stroke-linecap:butt;stroke-linejoin:miter;stroke-miterlimit:4;stroke-dasharray:none;stroke-opacity:1" />
    <path
       style="fill:#ffffff;fill-opacity:1;stroke:none;stroke-width:1.37952757;stroke-miterlimit:4;stroke-dasharray:none;stroke-dashoffset:0"
       d="M 66.083702,110.75013 C 33.776287,91.866002 7.2457858,76.318191 7.1270323,76.199437 7.0082787,76.080683 33.505587,60.471893 66.00994,41.513235 L 125.10877,7.0429496 183.99411,41.516322 c 32.38695,18.960354 58.88535,34.718427 58.88535,35.017938 0,0.496758 -114.47501,67.17686 -116.97443,68.13598 -0.59431,0.22806 -27.513912,-15.03599 -59.821328,-33.92011 z"
       id="path822"
       inkscape:connector-curvature="0"
       transform="matrix(0.26458333,0,0,0.26458333,158.26922,60.683068)" />
    <g
       transform="matrix(-0.03466827,-0.49793798,1.4543634,0.05293616,144.73765,162.71011)"
       id="text1153"
       style="font-style:normal;font-variant:normal;font-weight:normal;font-stretch:normal;font-size:10.58333302px;line-height:1.25;font-family:AnjaliOldLipi;-inkscape-font-specification:AnjaliOldLipi;letter-spacing:0px;word-spacing:0px;fill:#000000;fill-opacity:1;stroke:none;stroke-width:35.29784012;stroke-miterlimit:4;stroke-dasharray:none"
       aria-label="XAI">
      <path
         inkscape:connector-curvature="0"
         id="path1161"
         style="font-style:normal;font-variant:normal;font-weight:normal;font-stretch:normal;line-height:5.25;font-family:Suruma;-inkscape-font-specification:Suruma;stroke-width:35.29784012;stroke-miterlimit:4;stroke-dasharray:none"
         d="m 135.40284,35.543829 c 0,0 21.4867,-6.202176 21.4867,-6.202176 0,0 11.36064,-12.804622 11.36064,-12.804622 0,0 2.4986,1.463 2.4986,1.463 0,0 -8.87434,9.955346 -8.87434,9.955346 0,0 17.37346,-4.978877 17.37346,-4.978877 0,0 1.15731,0.677642 1.15731,0.677642 0,0 -19.70855,5.710891 -19.70855,5.710891 0,0 -12.68573,13.683639 -12.68573,13.683639 0,0 -2.48382,-1.478471 -2.48382,-1.478471 0,0 10.43147,-11.021328 10.43147,-11.021328 0,0 -19.38174,5.693769 -19.38174,5.693769 0,0 -1.174,-0.698813 -1.174,-0.698813" />
      <path
         inkscape:connector-curvature="0"
         id="path1163"
         style="font-style:normal;font-variant:normal;font-weight:normal;font-stretch:normal;line-height:5.25;font-family:Suruma;-inkscape-font-specification:Suruma;stroke-width:35.29784012;stroke-miterlimit:4;stroke-dasharray:none"
         d="m 149.97438,44.2174 c 0,0 38.49524,-15.841323 38.49524,-15.841323 0,0 2.6727,1.564941 2.6727,1.564941 0,0 -27.05259,22.678411 -27.05259,22.678411 0,0 -2.30587,-1.372544 -2.30587,-1.372544 0,0 8.61044,-7.040489 8.61044,-7.040489 0,0 -7.0956,-4.201855 -7.0956,-4.201855 0,0 -12.06767,4.960869 -12.06767,4.960869 0,0 -1.25665,-0.74801 -1.25665,-0.74801 m 15.89289,-5.34363 c 0,0 6.45329,3.817179 6.45329,3.817179 0,0 14.76196,-12.511343 14.76196,-12.511343 0,0 -21.21525,8.694164 -21.21525,8.694164" />
      <path
         inkscape:connector-curvature="0"
         id="path1165"
         style="font-style:normal;font-variant:normal;font-weight:normal;font-stretch:normal;line-height:5.25;font-family:Suruma;-inkscape-font-specification:Suruma;stroke-width:35.29784012;stroke-miterlimit:4;stroke-dasharray:none"
         d="m 166.06027,53.792373 c 0,0 32.75847,-19.356601 32.75847,-19.356601 0,0 2.08925,1.223318 2.08925,1.223318 0,0 -32.76063,19.375609 -32.76063,19.375609 0,0 -2.08709,-1.242326 -2.08709,-1.242326" />
    </g>
  </g>
</svg>
